<svg width="259" height="203" viewBox="0 0 259 203" fill="none" xmlns="http://www.w3.org/2000/svg">
<path d="M5.94068 4.49345C7.17776 4.49345 8.18061 3.48756 8.18061 2.24673C8.18061 1.00589 7.17776 0 5.94068 0C4.7036 0 3.70075 1.00589 3.70075 2.24673C3.70075 3.48756 4.7036 4.49345 5.94068 4.49345Z" fill="#FFCECE"/>
<path d="M13.3001 4.49345C14.5371 4.49345 15.54 3.48756 15.54 2.24673C15.54 1.00589 14.5371 0 13.3001 0C12.063 0 11.0601 1.00589 11.0601 2.24673C11.0601 3.48756 12.063 4.49345 13.3001 4.49345Z" fill="#FFCECE"/>
<path d="M20.6595 4.49345C21.8966 4.49345 22.8994 3.48756 22.8994 2.24673C22.8994 1.00589 21.8966 0 20.6595 0C19.4224 0 18.4196 1.00589 18.4196 2.24673C18.4196 3.48756 19.4224 4.49345 20.6595 4.49345Z" fill="#FFCECE"/>
<path d="M206.094 7.56653H0V7.83054H206.094V7.56653Z" fill="#3C354C"/>
<path d="M85.5832 23.7055H3.70075V124.631H85.5832V23.7055Z" fill="#3F3D56"/>
<path d="M202.394 51.3156H120.511V152.239H202.394V51.3156Z" fill="#FFCECE"/>
<path d="M178.692 82.585C178.955 81.8299 179.368 81.1277 179.579 80.3568C179.86 79.3245 179.758 78.2315 179.637 77.1675C179.623 76.7017 179.491 76.2472 179.252 75.8475C178.894 75.3564 178.268 75.1531 177.786 74.7914C176.612 73.907 176.449 72.2701 176.038 70.8656C175.502 69.0481 174.433 67.434 172.972 66.2322C172.051 65.4798 170.737 64.8937 169.698 65.4771C169.258 65.7227 168.937 66.1504 168.487 66.3748C167.903 66.6678 167.234 66.5781 166.568 66.5411C166.484 66.4399 166.38 66.3572 166.263 66.2982C165.636 65.9972 164.465 66.351 163.875 66.5966C163.378 66.7772 162.961 67.129 162.699 67.5892C162.643 67.7075 162.6 67.8314 162.57 67.9588C162.491 68.2757 162.465 68.6083 162.367 68.9251C162.289 69.1627 162.178 69.3883 162.038 69.5957C161.646 70.1792 161.07 70.6676 160.672 71.2616C160.486 71.5402 160.338 71.842 160.23 72.1592C159.942 73.0931 159.833 74.0729 159.906 75.0475C159.959 76.3676 160.117 77.6876 159.798 78.9681C159.698 79.3614 159.556 79.7601 159.438 80.1403C159.417 80.2036 159.393 80.2723 159.375 80.3356L159.327 80.5257C159.306 80.6181 159.285 80.7105 159.269 80.8029C159.238 80.993 159.219 81.1857 159.206 81.3811C159.206 81.4762 159.206 81.5738 159.206 81.6715C159.206 81.8669 159.206 82.0623 159.182 82.2576C159.172 82.5485 159.134 82.8377 159.067 83.1209C158.982 83.4395 158.856 83.7457 158.693 84.0318C158.511 84.3591 158.298 84.668 158.087 84.9743L157.382 86.0013C156.545 85.9353 155.692 85.9485 154.976 86.3524C154.316 86.7599 153.827 87.3971 153.605 88.1424C153.546 88.1635 153.492 88.1947 153.444 88.2348C153.3 88.3563 153.142 88.7919 152.989 89.341C152.989 89.341 152.989 89.341 152.989 89.3542C152.678 90.4868 152.397 92.0973 152.305 92.4563C152.094 93.2484 151.928 94.0747 151.778 94.8931C151.478 96.5696 151.273 98.2619 150.989 99.941C150.931 100.284 150.554 102.557 150.183 103.862C150.183 103.896 150.167 103.928 150.157 103.959C150.012 104.445 149.873 104.775 149.751 104.775H149.923H150.12C150.054 104.931 149.991 105.092 149.933 105.253C149.816 105.585 149.717 105.924 149.636 106.267C149.635 106.274 149.635 106.281 149.636 106.288C149.403 107.346 149.256 108.421 149.196 109.503C148.726 115.804 148.708 122.13 149.143 128.433C149.167 129.367 149.326 130.293 149.615 131.181C149.784 131.636 150.035 132.055 150.354 132.42L150.402 132.472C150.373 132.599 150.346 132.72 150.315 132.847C149.437 136.739 148.411 140.595 147.235 144.416C147.209 144.498 147.185 144.582 147.156 144.664C147.085 144.902 147.011 145.142 146.938 145.38C146.893 145.533 146.846 145.686 146.804 145.842C146.772 145.942 146.746 146.042 146.719 146.137C146.522 146.829 146.381 147.535 146.296 148.25C146.179 149.573 146.252 150.907 146.511 152.21H154.897C154.897 152.152 154.881 152.096 154.876 152.038C154.713 150.861 154.516 149.636 154.889 148.511C155.129 147.785 155.587 147.157 155.966 146.494C156.756 145.129 157.198 143.59 157.916 142.198C158.969 140.166 160.577 138.394 161.32 136.258C161.399 136.033 161.467 135.803 161.525 135.569C162.036 137.093 162.033 138.637 162.128 140.237C162.366 144.285 163.024 148.298 164.091 152.21H172.559C172.419 149.987 172.222 147.761 172.098 145.546C171.994 144.334 172.018 143.115 172.169 141.908C172.328 141.029 172.55 140.163 172.833 139.315C173.788 136.242 174.799 133.156 175.115 129.956C175.43 126.757 175.657 122.237 173.901 119.533C173.869 119.481 173.831 119.432 173.788 119.388C173.825 119.146 173.825 118.899 173.788 118.657C173.312 114.256 170.801 110.031 171.527 105.662C171.752 104.517 172.097 103.398 172.556 102.325C173.625 99.6189 174.814 96.8442 175.467 94.0272C175.752 93.2382 175.958 92.4228 176.083 91.593C176.21 90.8614 176.277 90.1206 176.283 89.378C176.282 89.0958 176.259 88.8141 176.212 88.5358C177.089 88.842 177.947 89.444 178.878 89.5628C178.958 89.574 179.038 89.581 179.118 89.5839C179.106 89.5673 179.095 89.5496 179.086 89.5311C178.978 89.3582 178.917 89.1596 178.91 88.9556C179.074 88.9925 179.242 89.0059 179.41 88.9952C179.739 88.9811 180.059 88.882 180.339 88.7074C179.508 87.9527 178.911 86.9744 178.619 85.8889C178.327 84.8034 178.352 83.6565 178.692 82.585ZM153.16 122.062C153.018 122.363 152.897 122.667 152.765 122.979V122.944C152.345 121.715 152.26 120.395 152.52 119.121C152.542 119.042 152.56 118.963 152.578 118.886C152.597 118.81 152.631 118.686 152.657 118.583C152.745 118.973 152.914 119.339 153.154 119.658C153.395 119.977 153.7 120.24 154.05 120.431C153.973 120.555 153.897 120.676 153.823 120.8C153.577 121.209 153.351 121.631 153.147 122.062H153.16ZM154.337 113.332C154.1 113.802 153.81 114.242 153.523 114.694C153.959 112.366 154.249 110.014 154.392 107.65C154.416 107.267 154.434 106.882 154.45 106.499C154.647 107.383 154.772 108.282 154.821 109.187C154.916 110.372 155.008 111.597 154.608 112.716C154.528 112.928 154.433 113.134 154.323 113.332H154.337Z" fill="url(#paint0_linear)"/>
<path d="M163.517 67.2962C163.026 67.4751 162.614 67.8243 162.357 68.2809C162.159 68.6928 162.167 69.1733 162.033 69.601C161.749 70.5197 160.896 71.1243 160.367 71.9243C159.648 73.0094 159.577 74.3928 159.611 75.697C159.646 77.0012 159.819 78.3371 159.503 79.5938C159.351 80.2089 159.088 80.7977 158.977 81.4234C158.848 82.1837 158.956 82.9784 158.769 83.7255C158.558 84.3939 158.231 85.0195 157.803 85.5736L156.121 88.0447C156.875 87.8653 157.616 87.6405 158.343 87.3715C158.119 88.0795 157.704 88.7112 157.142 89.1958L158.358 87.7174C158.606 87.3778 158.913 87.0862 159.264 86.8567C159.711 86.5927 160.24 86.561 160.741 86.4607C161.707 86.2627 162.67 85.7663 163.144 84.8977C163.773 83.7387 163.37 82.2814 163.723 81.0089C163.986 80.0795 164.615 79.3139 165.052 78.4559C166.047 76.518 165.986 74.2317 166.297 72.0748C166.475 71.166 166.589 70.2459 166.639 69.3211C166.639 68.6373 166.571 67.3358 165.849 66.9899C165.244 66.6995 164.091 67.0506 163.517 67.2962Z" fill="#192534"/>
<path d="M174.535 130.321C174.225 133.502 173.219 136.57 172.293 139.624C172.013 140.466 171.795 141.327 171.64 142.201C171.491 143.401 171.468 144.613 171.569 145.818C171.688 147.957 171.874 150.1 172.009 152.241H163.644C162.628 148.415 161.999 144.496 161.767 140.543C161.68 139.088 161.678 137.679 161.291 136.29C161.256 136.161 161.217 136.026 161.175 135.902C160.585 138.339 158.761 140.258 157.629 142.502C156.921 143.893 156.482 145.406 155.713 146.771C155.339 147.431 154.887 148.057 154.66 148.775C154.295 149.886 154.487 151.093 154.645 152.252H146.385C146.154 151.022 146.093 149.766 146.203 148.519C146.314 147.623 146.505 146.74 146.775 145.879C146.817 145.723 146.864 145.57 146.909 145.417C146.983 145.179 147.056 144.939 147.127 144.701C148.319 140.789 149.358 136.829 150.244 132.821C150.27 132.697 150.299 132.557 150.325 132.443C150.476 131.757 150.622 131.07 150.762 130.381C151.244 128.019 151.705 125.579 152.578 123.348C152.634 123.214 152.686 123.084 152.744 122.944C152.868 122.646 153.007 122.35 153.147 122.062C153.355 121.639 153.585 121.228 153.837 120.83C154.074 120.449 154.333 120.084 154.613 119.734C159.238 119.333 164.039 117.017 168.563 118.092C169.315 118.256 170.033 118.551 170.685 118.963C171.459 119.465 172.656 119.172 173.243 119.813C173.283 119.859 173.32 119.907 173.354 119.958C175.067 122.646 174.846 127.139 174.535 130.321Z" fill="#192534"/>
<path d="M162.773 82.8279C162.673 83.9631 162.436 85.299 161.406 85.7742C160.825 86.0382 160.146 85.9458 159.514 86.0382C158.319 86.2336 157.34 87.155 156.784 88.2322C156.229 89.3093 156.042 90.537 155.913 91.7435C155.753 93.2536 155.7 94.8931 156.527 96.1657C157.195 97.198 158.351 97.8237 159.535 98.1431C160.727 98.4548 161.972 98.4995 163.183 98.2741C164.394 98.0487 165.541 97.5587 166.542 96.8389C167.497 96.0895 168.362 95.2319 169.121 94.2833C170.837 92.2794 172.567 90.0829 172.917 87.4639C172.959 87.1656 172.956 86.8065 172.711 86.6296C172.544 86.5354 172.351 86.4974 172.161 86.5214L170.514 86.5504C170.095 86.5504 169.624 86.5504 169.342 86.2363C169.061 85.9221 169.079 85.5234 169.079 85.138L169.205 80.3515C169.232 80.1825 169.193 80.0099 169.097 79.8683C168.993 79.7726 168.86 79.7149 168.718 79.7047C167.813 79.5515 166.876 79.7047 165.976 79.4565C165.131 79.2242 163.807 78.25 163.186 79.2506C162.665 80.1165 162.859 81.8642 162.773 82.8279Z" fill="#FFC1C7"/>
<path opacity="0.1" d="M162.773 82.8279C162.673 83.9631 162.436 85.299 161.406 85.7742C160.825 86.0382 160.146 85.9458 159.514 86.0382C158.319 86.2336 157.34 87.155 156.784 88.2322C156.229 89.3093 156.042 90.537 155.913 91.7435C155.753 93.2536 155.7 94.8931 156.527 96.1657C157.195 97.198 158.351 97.8237 159.535 98.1431C160.727 98.4548 161.972 98.4995 163.183 98.2741C164.394 98.0487 165.541 97.5587 166.542 96.8389C167.497 96.0895 168.362 95.2319 169.121 94.2833C170.837 92.2794 172.567 90.0829 172.917 87.4639C172.959 87.1656 172.956 86.8065 172.711 86.6296C172.544 86.5354 172.351 86.4974 172.161 86.5214L170.514 86.5504C170.095 86.5504 169.624 86.5504 169.342 86.2363C169.061 85.9221 169.079 85.5234 169.079 85.138L169.205 80.3515C169.232 80.1825 169.193 80.0099 169.097 79.8683C168.993 79.7726 168.86 79.7149 168.718 79.7047C167.813 79.5515 166.876 79.7047 165.976 79.4565C165.131 79.2242 163.807 78.25 163.186 79.2506C162.665 80.1165 162.859 81.8642 162.773 82.8279Z" fill="black"/>
<path d="M166.918 82.519C170.392 82.519 173.209 79.694 173.209 76.2092C173.209 72.7243 170.392 69.8993 166.918 69.8993C163.444 69.8993 160.627 72.7243 160.627 76.2092C160.627 79.694 163.444 82.519 166.918 82.519Z" fill="#FFC1C7"/>
<path d="M160.169 93.7526C159.153 93.7738 158.006 93.4886 157.514 92.5936C157.177 91.9811 157.235 91.2366 157.298 90.5423L157.664 86.656C156.677 86.5531 155.616 86.4633 154.752 86.9544C153.61 87.6038 153.197 89.0453 153.068 90.3575C152.828 92.8207 153.218 95.3077 153.084 97.7788C152.971 99.8592 152.494 102.003 153.102 103.983C153.365 104.812 153.792 105.567 154.068 106.399C154.376 107.456 154.552 108.548 154.595 109.649C154.689 110.826 154.779 112.043 154.387 113.157C154.058 114.092 153.418 114.876 152.96 115.753C152.21 117.199 152.049 119.148 153.176 120.323C154.205 121.397 155.913 121.442 157.358 121.115C158.803 120.787 160.19 120.127 161.672 120.059C164.289 119.948 166.621 121.643 169.182 122.202C169.525 122.297 169.886 122.31 170.235 122.239C170.542 122.14 170.828 121.983 171.077 121.777L172.477 120.769C172.757 120.6 172.989 120.363 173.154 120.08C173.273 119.766 173.304 119.425 173.24 119.095C172.772 114.72 170.303 110.517 171.016 106.174C171.24 105.037 171.579 103.926 172.03 102.858C173.806 98.3015 175.936 93.5652 175.246 88.7206C175.093 87.6487 174.78 86.5504 174.043 85.7584C173.306 84.9664 172.061 84.5704 171.106 85.0773C170.15 85.5842 169.806 86.7141 169.392 87.6989C168.578 89.6036 167.288 91.2657 165.647 92.525C164.952 93.053 164.115 93.7394 163.207 93.7658C162.217 93.8002 161.18 93.7342 160.169 93.7526Z" fill="#F2F2F2"/>
<path d="M151.046 103.555C149.522 105.253 149.222 107.698 149.054 109.979C148.594 116.243 148.577 122.531 149.004 128.797C149.026 129.726 149.183 130.647 149.47 131.53C149.794 132.398 150.404 133.204 151.262 133.55C151.812 133.771 152.578 133.713 152.842 133.172C153.071 132.676 152.731 132.116 152.473 131.643C151.887 130.535 151.691 129.26 151.918 128.026C152.231 128.259 152.339 128.668 152.428 129.048L152.921 131.16C153.597 131.06 153.85 130.234 153.958 129.558C154.155 128.333 154.344 127.031 153.855 125.893C153.592 125.286 153.157 124.769 152.897 124.164C152.239 122.638 151.978 120.896 152.402 119.288C153.828 113.864 154.449 108.26 154.244 102.655C153.265 103.206 152.169 103.515 151.046 103.555Z" fill="#FFC1C7"/>
<path d="M149.607 105.271C151.484 105.29 153.353 105.538 155.171 106.008C155.411 104.82 155.295 103.59 155.171 102.383L154.381 94.0879C154.323 93.4702 154.434 87.8309 153.25 88.8262C152.813 89.1932 152.263 92.4933 152.126 93.024C151.92 93.816 151.757 94.6318 151.599 95.4449C151.304 97.1135 151.102 98.7952 150.81 100.461C150.741 100.947 150.03 105.274 149.607 105.271Z" fill="#F2F2F2"/>
<path d="M164.52 68.1885C164.512 67.992 164.556 67.7967 164.649 67.6235C164.731 67.5204 164.833 67.4352 164.949 67.3734C165.065 67.3116 165.192 67.2745 165.323 67.2645C166.231 67.1246 167.226 67.4915 168.047 67.0744C168.492 66.85 168.805 66.4276 169.24 66.1821C170.261 65.6039 171.551 66.1821 172.456 66.9345C173.898 68.1332 174.949 69.7379 175.472 71.5414C175.873 72.9354 176.036 74.5644 177.189 75.4435C177.665 75.8078 178.281 76.0085 178.628 76.4996C178.867 76.8991 178.999 77.3539 179.01 77.8196C179.128 78.8756 179.229 79.966 178.952 80.9877C178.744 81.7534 178.334 82.4503 178.081 83.2028C177.738 84.269 177.706 85.4116 177.989 86.4955C178.272 87.5794 178.858 88.5594 179.679 89.3199C179.26 89.5846 178.754 89.6728 178.27 89.5654C178.281 89.788 178.352 90.0036 178.476 90.1885C177.002 90.1436 175.723 88.7047 174.283 89.0189C173.185 89.2565 172.572 90.397 171.751 91.1679C170.698 92.1659 169.053 92.583 167.726 91.9917C166.4 91.4003 165.594 89.7212 166.147 88.38C166.787 86.8514 168.763 86.2494 169.45 84.7393C169.977 83.5697 169.587 82.2075 169.7 80.927C169.798 79.8287 170.271 78.8149 170.566 77.743C170.861 76.6712 170.956 75.4673 170.356 74.5432C169.721 73.5638 168.513 73.181 167.392 72.8166C164.907 71.9903 164.426 70.7257 164.52 68.1885Z" fill="#192534"/>
<path d="M166.065 90.867C165.886 89.9852 165.71 89.048 166.026 88.2084C166.613 86.6402 168.537 86.1518 169.869 85.1433C170.64 84.5558 171.233 83.764 171.58 82.8569C171.822 82.218 171.843 81.3442 171.259 81.0089C171.027 80.8996 170.771 80.8549 170.516 80.8795C168.442 80.927 166.542 82.0596 164.952 83.3955C164.025 84.1743 163.146 85.0667 162.686 86.1861C162.396 86.9937 162.218 87.8378 162.159 88.6942L161.836 91.5244C161.618 93.1431 161.492 94.7729 161.459 96.4059C161.458 97.3406 161.516 98.2745 161.633 99.2018C161.717 99.8618 161.841 100.54 162.225 101.082C162.944 102.087 164.331 102.312 165.557 102.346C166.024 102.374 166.493 102.345 166.952 102.259C169 101.813 170.556 98.9325 169.005 97.1531C168.345 96.398 167.355 96.3795 166.981 95.342C166.481 93.9665 166.35 92.3058 166.065 90.867Z" fill="#FFC1C7"/>
<path d="M167.731 91.3607L166.113 94.014C166.016 94.1506 165.948 94.3062 165.915 94.4707C165.871 94.8166 166.126 95.1202 166.331 95.4027C167.726 97.3115 167.384 99.941 166.952 102.267C169.178 101.56 171.159 100.239 172.67 98.4539C174.181 96.6692 175.159 94.4935 175.494 92.1765C175.699 90.7904 176.02 88.5041 174.799 87.6012C171.843 85.4284 169.119 89.0928 167.731 91.3607Z" fill="#F2F2F2"/>
<path d="M159.506 86.0462C160.138 85.9459 160.822 86.0462 161.399 85.7822C162.428 85.3069 162.665 83.9711 162.765 82.8358C162.765 82.7328 162.78 82.6167 162.783 82.4952C162.416 82.1091 162.016 81.7558 161.588 81.4392C161.201 81.2181 160.79 81.041 160.364 80.9112L159.243 80.4993C159.132 80.8049 159.044 81.1181 158.98 81.4366C158.851 82.1969 158.959 82.9916 158.772 83.7387C158.561 84.4071 158.234 85.0327 157.806 85.5868L156.124 88.0579C156.429 87.984 156.729 87.9022 157.032 87.815C157.3 87.365 157.659 86.9755 158.085 86.6711C158.51 86.3666 158.994 86.1539 159.506 86.0462Z" fill="#192534"/>
<path d="M200.206 122.786C200.206 122.786 189.249 117.408 191.355 121.5C193.46 125.592 200.206 126.054 200.206 126.054V122.786Z" fill="#FFC1C7"/>
<path d="M189.599 118.926L189.249 119.628L197.524 123.953L197.874 123.253L189.599 118.926Z" fill="#192534"/>
<path d="M207.782 122.551C207.782 122.551 207.082 124.307 204.402 123.253C202.885 122.63 201.261 122.313 199.622 122.318C199.622 122.318 197.874 125.825 199.622 127.11C201.37 128.396 208.713 130.619 208.948 129.333C209.182 128.048 207.782 122.551 207.782 122.551Z" fill="#FFCECE"/>
<path opacity="0.1" d="M207.782 122.551C207.782 122.551 207.082 124.307 204.402 123.253C202.885 122.63 201.261 122.313 199.622 122.318C199.622 122.318 197.874 125.825 199.622 127.11C201.37 128.396 208.713 130.619 208.948 129.333C209.182 128.048 207.782 122.551 207.782 122.551Z" fill="black"/>
<path d="M213.201 102.148C217.257 102.148 220.545 98.8503 220.545 94.7823C220.545 90.7142 217.257 87.4164 213.201 87.4164C209.145 87.4164 205.858 90.7142 205.858 94.7823C205.858 98.8503 209.145 102.148 213.201 102.148Z" fill="#FF6584"/>
<path d="M207.724 108.579V107.294C207.724 107.294 209.472 105.073 211.454 106.594C213.436 108.115 210.401 113.374 210.401 113.374L208.2 112.088L207.724 108.579Z" fill="#FFCECE"/>
<path d="M214.194 195.309L211.977 197.883C211.977 197.883 215.941 198.818 216.057 198.94C216.173 199.061 220.137 198.588 220.137 198.588L219.782 194.491L214.194 195.309Z" fill="#FFC1C7"/>
<path d="M222.585 192.933L223.638 197.377L228.183 196.321L230.515 192.696C230.515 192.696 228.883 191.526 228.41 190.357C227.936 189.187 222.585 192.933 222.585 192.933Z" fill="#FFC1C7"/>
<path d="M223.169 158.366L222.703 165.965C222.129 167.209 222.005 168.615 222.353 169.941C222.935 172.161 222.703 181.515 222.703 181.515C222.703 181.515 221.887 194.375 221.65 195.193C221.413 196.012 220.597 196.363 221.184 197.065C221.184 197.065 213.375 198.818 213.491 195.896C213.491 195.896 214.544 193.908 214.544 192.038C214.544 190.169 214.894 179.878 214.894 179.878L217.689 153.572L223.169 158.366Z" fill="#3F3D56"/>
<path opacity="0.1" d="M223.169 158.366L222.703 165.965C222.129 167.209 222.005 168.615 222.353 169.941C222.935 172.161 222.703 181.515 222.703 181.515C222.703 181.515 221.887 194.375 221.65 195.193C221.413 196.012 220.597 196.363 221.184 197.065C221.184 197.065 213.375 198.818 213.491 195.896C213.491 195.896 214.544 193.908 214.544 192.038C214.544 190.169 214.894 179.878 214.894 179.878L217.689 153.572L223.169 158.366Z" fill="black"/>
<path d="M210.93 139.036C210.93 139.036 207.666 158.446 207.771 164.645C207.876 170.844 209.519 174.347 209.519 174.347L218.263 186.272C218.13 186.596 218.082 186.949 218.123 187.296C218.163 187.644 218.291 187.976 218.494 188.26C219.195 189.316 219.429 190.132 219.429 190.832C219.429 191.531 220.826 192.001 221.292 192.944C221.758 193.886 223.04 196.569 226.072 194.465C229.104 192.36 230.152 191.542 229.568 189.905C228.983 188.268 227.704 187.218 227.588 186.399C227.473 185.581 224.917 183.582 224.567 181.232C224.217 178.883 218.273 169.307 218.273 169.307C218.273 169.307 224.217 157.382 224.451 155.161C224.685 152.941 225.383 151.993 225.383 151.993C225.383 151.993 228.997 145.095 227.015 141.94C225.033 138.785 210.93 139.036 210.93 139.036Z" fill="#3F3D56"/>
<path d="M216.057 198.351C216.057 198.351 212.899 197.883 212.899 196.128L208.584 198.583C208.584 198.583 200.075 198.934 203.689 201.857C207.303 204.779 223.166 200.922 223.166 200.922C223.166 200.922 222.003 197.073 220.834 196.714C220.834 196.714 218.729 198.467 216.057 198.351Z" fill="#3F3D56"/>
<path opacity="0.1" d="M216.057 198.351C216.057 198.351 212.899 197.883 212.899 196.128L208.584 198.583C208.584 198.583 200.075 198.934 203.689 201.857C207.303 204.779 223.166 200.922 223.166 200.922C223.166 200.922 222.003 197.073 220.834 196.714C220.834 196.714 218.729 198.467 216.057 198.351Z" fill="black"/>
<path d="M230.278 192.115C230.278 192.115 226.888 196.909 223.867 195.624C223.867 195.624 222.108 193.826 221.474 194.832C220.84 195.837 219.439 198.652 217.923 199.003C216.407 199.354 211.046 201.115 216.291 202.512C221.537 203.908 231.444 199.238 232.376 197.366C233.308 195.494 230.278 192.115 230.278 192.115Z" fill="#3F3D56"/>
<path d="M208.727 104.471C209.118 105.03 209.443 105.631 209.698 106.264C209.95 106.904 209.966 107.614 209.745 108.265C209.632 108.564 209.45 108.833 209.332 109.129C209.08 109.825 209.102 110.592 209.395 111.272C209.691 111.945 210.124 112.549 210.666 113.044C210.819 113.221 211.023 113.345 211.251 113.398C211.412 113.399 211.57 113.36 211.711 113.283C211.853 113.207 211.972 113.095 212.059 112.959C212.585 112.289 212.693 111.396 212.87 110.565C213.046 109.733 213.357 108.838 214.091 108.41C214.496 108.211 214.936 108.094 215.386 108.065L217.041 107.851C217.351 107.843 217.649 107.736 217.894 107.547C218.229 107.222 219.084 108.255 218.808 107.88C218.531 107.505 217.181 105.67 216.77 105.451C216.341 105.265 215.971 104.963 215.702 104.58C215.51 104.174 215.419 103.727 215.438 103.278C215.402 102.436 215.325 101.557 214.878 100.844C214.374 100.12 213.618 99.6119 212.759 99.4209C211.908 99.2341 211.037 99.1552 210.166 99.1859C209.617 99.1457 209.065 99.2139 208.542 99.3866C208.212 99.5149 207.926 99.7369 207.719 100.025C207.353 100.554 206.929 101.467 207.192 102.095C207.54 102.927 208.227 103.716 208.727 104.471Z" fill="#FFC1C7"/>
<path d="M211.161 103.727C214.894 103.727 217.921 100.692 217.921 96.9471C217.921 93.2028 214.894 90.1674 211.161 90.1674C207.428 90.1674 204.402 93.2028 204.402 96.9471C204.402 100.692 207.428 103.727 211.161 103.727Z" fill="#FFC1C7"/>
<path d="M220.021 108.989C219.619 108.142 218.965 107.442 218.149 106.985C217.334 106.528 216.397 106.336 215.467 106.436C213.533 106.647 211.411 107.162 211.161 108.405C210.695 110.744 209.879 113.316 209.879 111.328C209.879 109.34 209.835 107.93 209.835 107.93C209.835 107.93 208.016 106.417 207.666 107.352C207.316 108.286 206.966 111.911 207.082 114.48C207.197 117.049 207.316 125.001 207.316 125.001C207.316 125.001 207.55 132.953 208.248 135.057C208.668 136.457 208.787 137.931 208.598 139.382C208.598 139.382 207.666 140.319 209.879 140.667C212.093 141.016 213.262 139.03 216.873 141.486C220.484 143.941 228.415 145.227 228.762 143.598C229.11 141.969 226.549 135.178 227.249 130.152C227.949 125.125 220.021 108.989 220.021 108.989Z" fill="#FFCECE"/>
<path d="M212.327 138.687C212.327 138.687 210.58 141.491 209.998 141.61C209.416 141.729 209.182 142.895 210.58 142.309C211.977 141.723 211.511 141.726 211.511 141.726C211.511 141.726 210.345 143.598 212.327 143.946C214.309 144.295 215.36 144.535 215.36 143.479C215.36 142.423 215.125 139.622 215.125 139.622L212.327 138.687Z" fill="#FFC1C7"/>
<path opacity="0.1" d="M212.912 108.405C212.147 109.433 211.669 110.645 211.525 111.919C211.382 113.193 211.579 114.482 212.096 115.655C213.843 119.863 217.923 127.229 217.923 127.229C217.923 127.229 219.787 128.285 218.976 129.098C218.165 129.911 218.044 129.684 217.463 130.384C216.881 131.084 212.798 136.232 212.798 136.232C212.798 136.232 210.469 137.634 211.167 139.271C211.864 140.908 214.665 141.61 214.665 141.61C214.823 141.191 215.116 140.838 215.498 140.605C215.879 140.372 216.327 140.273 216.77 140.324C218.402 140.44 221.316 137.985 221.316 137.985C221.316 137.985 225.862 130.152 226.317 129.333C226.772 128.515 227.37 128.277 226.551 126.165C225.733 124.053 219.781 109.107 217.223 108.405C214.665 107.703 212.912 108.405 212.912 108.405Z" fill="black"/>
<path d="M213.378 108.17C212.614 109.198 212.136 110.411 211.993 111.684C211.849 112.958 212.046 114.247 212.562 115.42C214.309 119.628 218.389 126.994 218.389 126.994C218.389 126.994 220.255 128.05 219.442 128.866C218.629 129.682 218.508 129.449 217.926 130.152C217.344 130.854 213.264 135.997 213.264 135.997C213.264 135.997 210.932 137.399 211.632 139.036C212.333 140.672 215.125 141.367 215.125 141.367C215.284 140.949 215.577 140.595 215.959 140.362C216.34 140.13 216.788 140.031 217.231 140.081C218.863 140.197 221.777 137.742 221.777 137.742C221.777 137.742 226.322 129.909 226.791 129.09C227.259 128.272 227.844 128.034 227.022 125.935C226.201 123.837 220.263 108.865 217.697 108.162C215.131 107.46 213.378 108.17 213.378 108.17Z" fill="#FFCECE"/>
<path d="M215.009 102.383C218.904 102.383 222.061 99.2165 222.061 95.3103C222.061 91.4041 218.904 88.2375 215.009 88.2375C211.115 88.2375 207.958 91.4041 207.958 95.3103C207.958 99.2165 211.115 102.383 215.009 102.383Z" fill="#FF6584"/>
<path d="M222.105 91.8311C223.032 90.981 222.692 89.0942 221.345 87.6168C219.998 86.1394 218.155 85.6308 217.228 86.481C216.301 87.3311 216.641 89.2179 217.988 90.6954C219.335 92.1728 221.178 92.6813 222.105 91.8311Z" fill="#FF6584"/>
<path d="M208.54 93.8503C211.308 93.8503 213.551 92.803 213.551 91.5112C213.551 90.2193 211.308 89.1721 208.54 89.1721C205.772 89.1721 203.528 90.2193 203.528 91.5112C203.528 92.803 205.772 93.8503 208.54 93.8503Z" fill="#FF6584"/>
<path d="M209.59 100.047C210.17 100.047 210.64 99.3398 210.64 98.4679C210.64 97.5959 210.17 96.8891 209.59 96.8891C209.01 96.8891 208.54 97.5959 208.54 98.4679C208.54 99.3398 209.01 100.047 209.59 100.047Z" fill="#FFC1C7"/>
<path d="M259 202.736H183.722V203H259V202.736Z" fill="#3C354C"/>
<path d="M68.4508 88.3008C66.8425 88.9133 63.1023 88.982 61.4441 88.9793C60.9387 88.9793 60.6255 88.9793 60.6255 88.9793L59.5595 86.8065L60.6255 84.9928C60.6255 84.9928 61.5994 84.7288 62.8996 84.4885C64.8158 84.1427 67.4374 83.8707 68.6903 84.6496C70.7802 85.9247 70.5407 87.4903 68.4508 88.3008Z" fill="#A0616A"/>
<path opacity="0.1" d="M61.4441 88.9661C60.9387 88.9661 60.6255 88.9661 60.6255 88.9661L59.5595 86.7933L60.6255 84.9796C60.6255 84.9796 61.5994 84.7156 62.8996 84.4753C61.8547 85.2489 59.3147 86.9306 61.4441 88.9661Z" fill="black"/>
<path d="M43.8036 62.2615L44.2748 61.7203C44.2748 61.7203 46.6937 65.5616 46.949 67.0005C47.2043 68.4394 47.5254 70.1185 47.5254 70.1185C47.5254 70.1185 48.1414 72.0035 48.5388 72.8378C48.9363 73.672 49.2969 74.4667 49.3284 74.831C49.36 75.1954 49.1837 75.99 49.9417 76.4969C50.6998 77.0038 50.8814 78.382 50.8814 78.382C50.8814 78.382 53.6293 81.0643 55.0743 81.1382C56.5194 81.2122 60.6755 81.9303 60.5307 82.6589C60.386 83.3876 62.2653 83.8206 63.0233 84.0001C63.7814 84.1796 58.146 86.3577 61.4441 89.1483C61.4441 89.1483 59.3384 89.5839 59.1304 90.0908C58.9225 90.5977 56.7115 89.8004 56.7115 89.8004C56.7115 89.8004 56.2404 88.6757 54.6058 88.6044C52.9713 88.5332 52.1501 87.8124 52.1501 87.6989C52.1501 87.5854 50.5234 86.6825 49.6206 86.429C48.7178 86.1756 47.5149 86.0673 47.486 85.8139C47.457 85.5604 42.0664 62.2509 42.0664 62.2509L43.8036 62.2615Z" fill="#192534"/>
<path opacity="0.05" d="M43.8036 62.2615L44.2748 61.7203C44.2748 61.7203 46.6937 65.5616 46.949 67.0005C47.2043 68.4394 47.5254 70.1185 47.5254 70.1185C47.5254 70.1185 48.1414 72.0035 48.5388 72.8378C48.9363 73.672 49.2969 74.4667 49.3284 74.831C49.36 75.1954 49.1837 75.99 49.9417 76.4969C50.6998 77.0038 50.8814 78.382 50.8814 78.382C50.8814 78.382 53.6293 81.0643 55.0743 81.1382C56.5194 81.2122 60.6755 81.9303 60.5307 82.6589C60.386 83.3876 62.2653 83.8206 63.0233 84.0001C63.7814 84.1796 58.146 86.3577 61.4441 89.1483C61.4441 89.1483 59.3384 89.5839 59.1304 90.0908C58.9225 90.5977 56.7115 89.8004 56.7115 89.8004C56.7115 89.8004 56.2404 88.6757 54.6058 88.6044C52.9713 88.5332 52.1501 87.8124 52.1501 87.6989C52.1501 87.5854 50.5234 86.6825 49.6206 86.429C48.7178 86.1756 47.5149 86.0673 47.486 85.8139C47.457 85.5604 42.0664 62.2509 42.0664 62.2509L43.8036 62.2615Z" fill="black"/>
<path d="M55.3849 124.634H44.2195C43.6431 123.594 43.1667 122.559 43.2667 122.208C43.5088 121.416 43.1561 120.143 43.1561 120.143C43.1561 120.143 42.8087 119.541 42.3876 118.823C41.8743 117.941 41.2531 116.883 41.0426 116.553C40.7793 116.133 40.1371 114.348 39.7791 113.321C39.6265 112.885 39.5159 112.584 39.5159 112.584C39.5159 112.584 39.0816 120.576 38.7026 121.392C38.5394 121.743 38.3367 123.15 38.1762 124.634H29.4112C29.364 124.379 29.2853 124.13 29.177 123.895C28.7716 123.103 29.5823 120.386 29.5823 120.386C29.5823 120.386 28.7927 115.106 28.8243 114.298C28.8559 113.49 28.1478 111.061 28.1478 111.061C28.1478 111.061 27.4424 109.812 27.6056 109.43C27.7688 109.047 27.0634 108.073 27.2529 107.637C27.4424 107.201 27.0897 105.871 26.7265 105.081C26.5449 104.677 26.3238 103.563 26.1474 102.576C26.1264 102.465 26.1079 102.357 26.0895 102.251C25.9553 101.459 25.8605 100.812 25.8605 100.812L27.2871 99.6585L27.3477 99.6084L30.3325 97.198L34.3991 96.1287L34.6465 96.0627L41.49 94.2622L44.4196 93.317L45.2408 93.053L45.7093 92.8999L49.8022 99.3681C49.8022 99.3681 50.1523 99.9278 50.4971 100.617L50.5998 100.825C50.9209 101.499 51.2078 102.248 51.1578 102.713C51.0873 103.304 51.2211 103.901 51.5368 104.405C51.5368 104.405 53.9768 112.154 53.9215 114.385C53.8662 116.616 54.7901 121.513 54.7901 121.513C54.7901 121.513 55.3823 123.361 55.3849 124.634Z" fill="#192534"/>
<path d="M38.6921 62.5334C38.5184 62.4621 26.7291 57.578 28.3531 56.609C29.3165 56.0309 30.5009 53.5914 31.3143 51.68C31.8828 50.3441 32.2671 49.2669 32.2671 49.2669C32.2671 49.2669 41.7295 47.5825 38.342 53.4013C37.808 54.293 37.4063 55.258 37.1497 56.2658C36.1784 60.2286 38.6078 62.4595 38.6921 62.5334Z" fill="#A0616A"/>
<path opacity="0.1" d="M38.3367 53.4013C37.8027 54.293 37.401 55.258 37.1444 56.2658C35.9437 56.1816 34.7888 55.7702 33.8041 55.0761C32.8193 54.3819 32.0422 53.4313 31.5564 52.3268C31.4623 52.1158 31.3798 51.8999 31.309 51.68C31.8775 50.3441 32.2618 49.2669 32.2618 49.2669C32.2618 49.2669 41.7242 47.5825 38.3367 53.4013Z" fill="black"/>
<path d="M44.2195 49.4306C44.2206 51.1078 43.5878 52.7231 42.4487 53.9509C41.3095 55.1787 39.7488 55.9278 38.0809 56.0472C36.413 56.1667 34.762 55.6475 33.4605 54.5944C32.1591 53.5414 31.304 52.0326 31.0675 50.3723C30.831 48.7119 31.2308 47.0234 32.1862 45.6469C33.1416 44.2705 34.5817 43.3084 36.2162 42.9546C37.8507 42.6008 39.5581 42.8816 40.9944 43.7404C42.4307 44.5992 43.4891 45.9721 43.9563 47.5825C44.1305 48.183 44.2191 48.8052 44.2195 49.4306Z" fill="#A0616A"/>
<path opacity="0.1" d="M50.5998 100.828C49.9075 101.459 49.639 102.66 49.639 102.66C49.639 102.66 46.3884 104.891 46.6042 103.476C46.82 102.061 44.9249 96.3479 44.9249 96.3479L45.1408 104.141C45.1408 104.141 34.7334 103.653 33.9753 102.893C33.2173 102.132 28.7716 100.662 28.7716 100.662C28.7716 100.662 27.4108 101.757 26.158 102.589C25.9921 101.652 25.8711 100.825 25.8711 100.825L30.3456 97.2085L41.5111 94.2727L45.7225 92.9131L49.8154 99.384C50.1006 99.852 50.3624 100.334 50.5998 100.828Z" fill="black"/>
<path d="M50.9419 100.213C50.0733 100.757 49.7496 102.225 49.7496 102.225C49.7496 102.225 46.4963 104.456 46.7121 103.041C46.9279 101.625 45.0328 95.9122 45.0328 95.9122L45.2486 103.687C45.2486 103.687 34.8413 103.199 34.0832 102.439C33.3252 101.678 28.8795 100.208 28.8795 100.208C28.8795 100.208 25.0314 103.307 24.326 103.035C23.6206 102.763 25.571 97.491 25.571 97.491L27.5766 66.6018C27.5766 66.6018 27.037 57.4143 27.8398 57.0975C27.9659 57.0476 28.0818 56.9751 28.182 56.8836C28.7084 56.4005 28.8795 55.421 28.9243 54.5973C28.9795 53.6178 30.2798 54.1062 30.2798 54.1062L29.5218 55.0857L36.2389 59.1831L36.2968 59.2175C36.5589 59.0797 36.8287 58.9572 37.1049 58.8505C37.6997 58.6208 38.4894 58.4069 39.0079 58.6208C39.2974 58.7676 39.5427 58.989 39.7186 59.2623C40.1017 59.8364 40.4095 60.4575 40.6345 61.1104L43.0719 65.2422C43.0719 65.2422 44.3195 70.7336 44.3195 70.9527C44.3195 71.1719 44.6985 76.1722 45.1328 76.7161C45.5671 77.2599 46.0014 79.9766 45.8382 80.7924C45.675 81.6082 46.1014 84.6522 46.1014 84.6522C47.8887 86.1201 48.8099 91.1231 48.8099 91.1231C48.8099 91.1231 51.6289 96.7228 51.8474 97.3775C52.0658 98.0323 51.8079 99.6691 50.9419 100.213Z" fill="#F2F2F2"/>
<path opacity="0.1" d="M36.2469 59.3996C35.5862 60.3791 33.6858 61.7546 33.6858 61.7546L28.19 57.1001C28.7164 56.617 28.8875 55.6375 28.9322 54.8138C28.9875 53.8343 30.2878 54.3253 30.2878 54.3253L30.1298 54.5286C30.0545 54.6262 30.0005 54.7387 29.9715 54.8586C29.9424 54.9786 29.939 55.1033 29.9614 55.2247C29.9837 55.3461 30.0314 55.4613 30.1012 55.5629C30.1711 55.6646 30.2616 55.7502 30.3667 55.8144L36.2469 59.3996Z" fill="black"/>
<path d="M36.2469 59.1831C35.5862 60.16 33.6858 61.5381 33.6858 61.5381L28.19 56.8836C28.7164 56.4005 28.8875 55.421 28.9322 54.5973C28.9875 53.6178 30.2878 54.1062 30.2878 54.1062L30.1298 54.3095C30.0545 54.4071 30.0005 54.5195 29.9715 54.6395C29.9424 54.7594 29.939 54.8842 29.9614 55.0056C29.9837 55.1269 30.0314 55.2422 30.1012 55.3438C30.1711 55.4455 30.2616 55.5311 30.3667 55.5952L36.2469 59.1831Z" fill="#F2F2F2"/>
<path opacity="0.1" d="M38.7868 59.9145C38.0762 60.7672 37.0733 61.7308 37.1181 61.2345C37.1628 60.7382 36.5179 59.6821 36.1073 59.2043C36.751 58.9994 37.4449 59.0189 38.0762 59.2597C38.3673 59.4101 38.6127 59.6363 38.7868 59.9145Z" fill="black"/>
<path d="M38.8948 59.5897C38.1867 60.4398 37.1813 61.4061 37.226 60.9229C37.2708 60.4398 36.6996 59.6557 36.2811 59.1779C36.8759 58.9482 37.6656 58.7317 38.1841 58.9455C38.4741 59.0927 38.7195 59.3151 38.8948 59.5897Z" fill="#F2F2F2"/>
<path d="M37.1181 64.1122C37.3579 64.1122 37.5524 63.9172 37.5524 63.6766C37.5524 63.436 37.3579 63.241 37.1181 63.241C36.8782 63.241 36.6838 63.436 36.6838 63.6766C36.6838 63.9172 36.8782 64.1122 37.1181 64.1122Z" fill="#192534"/>
<path d="M40.4056 75.8554C40.6454 75.8554 40.8399 75.6604 40.8399 75.4198C40.8399 75.1792 40.6454 74.9841 40.4056 74.9841C40.1657 74.9841 39.9713 75.1792 39.9713 75.4198C39.9713 75.6604 40.1657 75.8554 40.4056 75.8554Z" fill="#192534"/>
<path d="M44.13 87.7438C44.3699 87.7438 44.5643 87.5487 44.5643 87.3081C44.5643 87.0676 44.3699 86.8725 44.13 86.8725C43.8902 86.8725 43.6957 87.0676 43.6957 87.3081C43.6957 87.5487 43.8902 87.7438 44.13 87.7438Z" fill="#192534"/>
<path d="M44.238 100.686C44.4778 100.686 44.6722 100.491 44.6722 100.25C44.6722 100.009 44.4778 99.8143 44.238 99.8143C43.9981 99.8143 43.8036 100.009 43.8036 100.25C43.8036 100.491 43.9981 100.686 44.238 100.686Z" fill="#192534"/>
<path d="M39.0342 69.6564C39.2741 69.6564 39.4685 69.4614 39.4685 69.2208C39.4685 68.9802 39.2741 68.7852 39.0342 68.7852C38.7944 68.7852 38.5999 68.9802 38.5999 69.2208C38.5999 69.4614 38.7944 69.6564 39.0342 69.6564Z" fill="#192534"/>
<path d="M41.9611 81.727C42.201 81.727 42.3954 81.5319 42.3954 81.2914C42.3954 81.0508 42.201 80.8557 41.9611 80.8557C41.7213 80.8557 41.5269 81.0508 41.5269 81.2914C41.5269 81.5319 41.7213 81.727 41.9611 81.727Z" fill="#192534"/>
<path d="M44.817 93.581C45.0569 93.581 45.2513 93.386 45.2513 93.1454C45.2513 92.9048 45.0569 92.7098 44.817 92.7098C44.5772 92.7098 44.3827 92.9048 44.3827 93.1454C44.3827 93.386 44.5772 93.581 44.817 93.581Z" fill="#192534"/>
<path d="M44.1642 102.135C44.4041 102.135 44.5985 101.94 44.5985 101.699C44.5985 101.459 44.4041 101.264 44.1642 101.264C43.9244 101.264 43.7299 101.459 43.7299 101.699C43.7299 101.94 43.9244 102.135 44.1642 102.135Z" fill="#192534"/>
<path opacity="0.1" d="M28.1926 57.1476C28.1926 57.1476 28.2636 56.4929 27.324 57.6176C26.3843 58.7423 24.6155 59.7297 24.6155 59.7297C24.6155 59.7297 20.6042 62.5572 20.3857 63.8641C20.1672 65.1709 18.8696 70.8234 19.554 72.7084C20.2383 74.5934 25.4815 83.6173 25.4815 83.6173C25.4815 83.6173 24.1075 85.2489 24.4286 87.1709C24.7498 89.0929 25.1525 91.7382 24.9708 92.3164C24.7892 92.8946 25.1867 94.3467 24.5734 94.8536C23.9601 95.3605 23.3074 96.2317 25.2235 97.3933C25.2235 97.3933 25.5841 98.3702 25.2604 98.5893C24.9366 98.8084 30.0666 101.053 32.0907 99.8565C34.1148 98.6606 37.7629 89.0902 37.8366 86.9517C37.9103 84.8133 36.7206 77.7404 36.0599 76.0719C35.3993 74.4033 33.4568 67.9166 32.6382 66.4672C31.8196 65.0178 28.1926 57.1476 28.1926 57.1476Z" fill="black"/>
<path d="M27.9741 57.1476C27.9741 57.1476 28.0478 56.4929 27.1081 57.6176C26.1685 58.7423 24.3971 59.7297 24.3971 59.7297C24.3971 59.7297 20.3857 62.5572 20.1699 63.8641C19.954 65.1709 18.6511 70.8234 19.3381 72.7084C20.0251 74.5934 25.2683 83.612 25.2683 83.612C25.2683 83.612 23.8943 85.2436 24.2154 87.1656C24.5366 89.0876 24.9366 91.733 24.7577 92.3111C24.5787 92.8893 24.9735 94.3414 24.3602 94.8483C23.7469 95.3552 23.0942 96.2264 25.0103 97.3881C25.0103 97.3881 25.3709 98.3649 25.0446 98.584C24.7182 98.8031 29.8508 101.047 31.8881 99.8513C33.9253 98.6553 37.5629 89.0849 37.634 86.9465C37.705 84.808 36.5153 77.7404 35.8652 76.0719C35.215 74.4033 33.262 67.9166 32.4303 66.4672C31.5985 65.0178 27.9741 57.1476 27.9741 57.1476Z" fill="#192534"/>
<path opacity="0.1" d="M26.5291 63.3149C26.5291 63.3149 29.6376 66.747 29.5297 69.0413C29.5297 69.0413 29.5665 65.3452 26.5291 63.3149Z" fill="black"/>
<path opacity="0.1" d="M30.8299 68.9673C30.8299 69.0782 32.9356 76.9061 32.8172 77.8856C32.6987 78.8651 33.4278 81.7639 33.4278 81.7639L34.4017 81.4999C34.4017 81.4999 33.6437 77.4764 33.4989 75.99C33.3541 74.5036 30.8299 68.9673 30.8299 68.9673Z" fill="black"/>
<path opacity="0.1" d="M31.6617 91.2973C31.588 91.4056 26.7107 96.9524 28.0847 97.3511C29.4586 97.7497 31.6617 91.2973 31.6617 91.2973Z" fill="black"/>
<path opacity="0.1" d="M27.6504 89.8849C27.5425 89.9588 25.7 93.8741 25.4815 92.8233C25.263 91.7726 27.0608 95.6852 27.3608 92.7864L27.6504 89.8849Z" fill="black"/>
<path opacity="0.1" d="M37.0181 58.3832C37.0181 58.3832 39.0343 57.1476 41.5637 60.3157C41.5637 60.3157 43.4062 61.3718 43.9484 61.62C44.4906 61.8681 45.1039 68.6162 45.1039 68.6162C45.1039 68.6162 46.2963 71.5203 45.9725 73.1836C45.6488 74.8469 46.9122 80.5759 46.9122 80.5759C46.9122 80.5759 49.0179 90.8723 48.9363 91.1601C48.8547 91.4478 46.8043 87.9339 46.8306 86.194C46.8569 84.4542 45.096 79.0182 44.8433 78.6909C44.5906 78.3635 42.8561 69.0492 42.8561 69.0492C42.8561 69.0492 41.4479 65.0891 40.5425 63.7928C39.637 62.4965 38.521 60.0227 38.0499 59.5871C37.7118 59.2944 37.3343 59.0509 36.9286 58.8637L37.0181 58.3832Z" fill="black"/>
<path d="M36.9917 58.3832C36.9917 58.3832 39.2501 57.1529 41.7796 60.3052C41.7796 60.3052 43.622 61.3612 44.1643 61.6094C44.7065 61.8576 45.3224 68.6057 45.3224 68.6057C45.3224 68.6057 46.5147 71.5098 46.1884 73.173C45.862 74.8363 47.128 80.5653 47.128 80.5653C47.128 80.5653 49.2337 90.8617 49.1521 91.1495C49.0705 91.4373 47.0201 87.9233 47.0464 86.1835C47.0727 84.4436 45.3119 79.0077 45.0592 78.6803C44.8065 78.3529 43.0693 69.0387 43.0693 69.0387C43.0693 69.0387 41.6611 65.0785 40.7583 63.7822C39.8555 62.4859 38.7342 60.0122 38.263 59.5765C37.8617 59.2607 37.4095 59.0161 36.9259 58.8531L36.9917 58.3832Z" fill="#192534"/>
<path d="M46.9122 81.0379C46.9122 81.0379 51.2131 78.213 53.2898 79.607C55.3665 81.0009 58.7646 82.9784 55.4218 84.4093C52.079 85.8403 47.4544 85.571 47.4544 85.571L46.9122 81.0379Z" fill="#A0616A"/>
<path opacity="0.1" d="M43.922 108.315C43.2798 109.696 42.7534 116.624 42.3928 118.82C41.8795 117.939 41.2584 116.883 41.0478 116.553C40.7846 116.133 40.1423 114.348 39.7844 113.321C40.1923 112.326 41.3242 109.472 41.3242 108.424C41.3242 107.146 43.3851 105.543 43.3851 105.543C43.7556 105.889 44.0072 106.343 44.1037 106.842C44.2002 107.34 44.1366 107.856 43.922 108.315Z" fill="black"/>
<path opacity="0.1" d="M43.9563 47.5931C43.8544 47.6494 43.7467 47.6945 43.6352 47.7277C43.1272 47.865 42.6297 47.5218 42.177 47.2472C41.7243 46.9727 41.1031 46.7694 40.7135 47.1258C40.2029 47.5878 40.5714 48.5805 40.0476 49.0293C39.7133 49.3144 39.1869 49.2168 38.8158 49.4517C38.4446 49.6867 38.3367 50.1936 38.242 50.6371C38.1472 51.0807 37.963 51.5796 37.5313 51.709C37.0996 51.8384 36.7022 51.5559 36.2758 51.5717C36.1889 51.5717 36.0863 51.5849 36.0126 51.5216C35.9746 51.4631 35.9596 51.3925 35.9705 51.3236C36.0259 50.7916 35.9795 50.2539 35.8336 49.7395C35.7577 49.4852 35.6159 49.2556 35.4226 49.0742C35.2293 48.8928 34.9914 48.7662 34.7334 48.7072C33.97 48.5884 33.3304 49.2564 32.8909 49.8847C32.4209 50.5471 31.9928 51.2384 31.609 51.9545C31.5906 51.9915 31.5696 52.0417 31.5459 52.0998C31.1804 51.2679 30.9893 50.3695 30.9844 49.4605C30.9794 48.5514 31.1608 47.651 31.5172 46.8152C31.8737 45.9794 32.3976 45.2259 33.0564 44.6017C33.7152 43.9774 34.4949 43.4955 35.3471 43.1861C36.1993 42.8766 37.1058 42.7461 38.0104 42.8027C38.9149 42.8593 39.7983 43.1017 40.6055 43.5149C41.4128 43.9282 42.1268 44.5034 42.7032 45.2049C43.2796 45.9065 43.7061 46.7193 43.9563 47.5931Z" fill="black"/>
<path d="M32.9014 49.787C33.3489 49.1587 33.9885 48.4907 34.7439 48.6095C35.0018 48.669 35.2394 48.7958 35.4326 48.9771C35.6258 49.1584 35.7678 49.3877 35.8441 49.6418C35.99 50.1563 36.0365 50.6939 35.981 51.2259C35.9751 51.2602 35.976 51.2954 35.9836 51.3294C35.9913 51.3634 36.0056 51.3955 36.0258 51.4239C36.0837 51.4873 36.1863 51.4767 36.2732 51.4741C36.6969 51.4582 37.1207 51.7381 37.5287 51.6113C37.9367 51.4846 38.1446 50.9804 38.2394 50.5368C38.3341 50.0933 38.4315 49.5943 38.8132 49.3541C39.1948 49.1138 39.7107 49.2168 40.045 48.9316C40.5714 48.4828 40.1977 47.4901 40.7083 47.0255C41.1005 46.6717 41.7243 46.875 42.1744 47.1496C42.6245 47.4241 43.1246 47.7674 43.6326 47.6301C43.8011 47.5685 43.9663 47.498 44.1274 47.4189C44.9302 47.1126 45.9699 47.6327 46.6332 47.0809C46.873 46.8404 47.0455 46.5409 47.1333 46.2123C47.3145 45.7682 47.4375 45.3022 47.4991 44.8263C47.5573 44.3455 47.425 43.8611 47.1306 43.4772C46.7016 42.9677 45.9751 42.8409 45.425 42.466C44.979 42.1146 44.6084 41.6763 44.3353 41.1777C44.0652 40.6785 43.7087 40.2315 43.2825 39.8576C42.8324 39.5144 42.1954 39.3507 41.7032 39.6068C41.5423 39.7176 41.3645 39.8015 41.1768 39.855C40.9743 39.8586 40.7751 39.8036 40.603 39.6966C38.721 38.8095 36.5338 38.9653 34.4728 39.2293C33.6428 39.2975 32.8284 39.4952 32.0592 39.8154C31.6751 39.9784 31.3307 40.2228 31.0494 40.5317C30.7682 40.8407 30.5569 41.2069 30.4299 41.6054C30.2614 42.2443 30.3904 42.9254 30.1877 43.567C30.0509 43.9947 29.7692 44.359 29.6087 44.7788C29.1691 45.9246 29.6955 47.1839 29.9192 48.3931C30.1614 49.7131 30.0377 51.1414 30.5983 52.3875C30.7089 52.6331 30.83 53.0634 31.1063 52.8997C31.3116 52.7809 31.509 52.0839 31.6328 51.8674C32.0128 51.1486 32.4365 50.4538 32.9014 49.787Z" fill="#192534"/>
<path opacity="0.1" d="M21.0016 71.0346L20.0251 73.8251C20.0251 73.8251 22.3387 82.453 23.4232 84.2641C24.5076 86.0752 26.0974 88.3985 26.0974 88.3985C27.9114 89.2173 29.9292 89.4693 31.888 89.1219C34.9966 88.5067 44.0668 86.8752 44.0668 86.8752C44.0668 86.8752 44.8275 87.0204 45.225 86.4395C45.6224 85.8587 47.6807 85.571 47.6807 85.571C47.6807 85.571 50.0654 82.0913 47.1385 80.6392C47.1385 80.6392 46.7779 81.4313 45.225 80.9033C43.672 80.3752 43.2009 81.3362 43.2009 81.3362C43.2009 81.3362 40.6714 81.8458 39.2527 81.6636C37.834 81.4814 34.3385 81.3996 33.9885 81.1197C33.8969 81.0381 33.7768 80.9961 33.6545 81.003C33.5321 81.0099 33.4175 81.0652 33.3357 81.1567C33.3357 81.1567 32.4697 80.8293 32.1802 80.5046C31.8907 80.1799 31.4932 80.8663 31.4932 80.8663C31.4932 80.8663 30.9879 80.5759 31.1326 80.2142C31.2774 79.8525 30.6615 78.4744 30.6615 78.4744C30.4998 77.9463 30.4629 77.3877 30.5536 76.8428C30.7352 76.1168 29.6507 73.5083 29.6507 73.5083C29.6357 73.068 29.6844 72.6278 29.7955 72.2015C29.9771 71.5494 28.4215 70.2452 28.4215 70.2452C28.4215 70.2452 26.9055 62.8529 23.6837 65.2791C20.462 67.7054 21.0016 71.0346 21.0016 71.0346Z" fill="black"/>
<path d="M20.7937 71.0346L19.8198 73.8251C19.8198 73.8251 22.1308 82.453 23.2153 84.2641C24.2997 86.0752 25.8895 88.3985 25.8895 88.3985C27.7037 89.2168 29.7213 89.4688 31.6801 89.1219C34.7887 88.5067 43.8589 86.8752 43.8589 86.8752C43.8589 86.8752 44.617 87.0204 45.0144 86.4395C45.4119 85.8587 47.4728 85.571 47.4728 85.571C47.4728 85.571 49.8575 82.0913 46.9306 80.6392C46.9306 80.6392 46.57 81.4313 45.0144 80.9033C43.4588 80.3752 42.9903 81.3362 42.9903 81.3362C42.9903 81.3362 40.4609 81.8458 39.0422 81.6636C37.6234 81.4814 34.128 81.3996 33.7648 81.1197C33.6737 81.0382 33.554 80.9963 33.4321 81.0032C33.3102 81.0102 33.196 81.0654 33.1146 81.1567C33.1146 81.1567 32.2487 80.8293 31.9591 80.5046C31.6696 80.1799 31.2722 80.8663 31.2722 80.8663C31.2722 80.8663 30.7668 80.5759 30.9116 80.2142C31.0563 79.8525 30.4404 78.4744 30.4404 78.4744C30.2773 77.9465 30.2404 77.3876 30.3325 76.8428C30.5141 76.1168 29.4297 73.5083 29.4297 73.5083C29.4146 73.068 29.4634 72.6278 29.5744 72.2015C29.7534 71.5494 28.2005 70.2452 28.2005 70.2452C28.2005 70.2452 26.6818 62.8529 23.4627 65.2791C20.2436 67.7054 20.7937 71.0346 20.7937 71.0346Z" fill="#192534"/>
<path opacity="0.1" d="M44.2748 82.7065C44.2379 82.9705 43.443 83.9763 43.7326 84.1559C44.0221 84.3354 44.4906 84.2298 44.0563 84.808C43.622 85.3862 43.6589 86.26 43.9484 86.1492C44.2379 86.0383 44.7065 84.7367 44.7065 84.2298C44.7065 83.7229 44.2748 82.7065 44.2748 82.7065Z" fill="black"/>
<path opacity="0.1" d="M33.541 82.1256C33.541 82.1256 33.3226 84.6628 31.5538 85.3888C29.785 86.1148 33.541 82.1256 33.541 82.1256Z" fill="black"/>
<path opacity="0.1" d="M29.8534 81.257C29.7455 81.294 27.3239 82.5982 28.4084 83.3691C29.4928 84.14 29.8534 81.257 29.8534 81.257Z" fill="black"/>
<path opacity="0.1" d="M29.7087 79.4433C29.7087 79.4433 26.1685 80.1693 27.3608 80.7844C28.5532 81.3996 29.7087 79.4433 29.7087 79.4433Z" fill="black"/>
<g opacity="0.1">
<path opacity="0.1" d="M35.852 49.0267C35.7758 48.7722 35.634 48.5425 35.4407 48.3607C35.2475 48.179 35.0099 48.0517 34.7518 47.9917C33.9885 47.8756 33.3489 48.5435 32.9093 49.1719C32.4403 49.8349 32.0122 50.5261 31.6275 51.2417C31.5117 51.4582 31.3143 52.1525 31.1011 52.274C30.8379 52.435 30.7036 52.01 30.5931 51.7618C30.0324 50.513 30.1561 49.0847 29.914 47.7647C29.7719 46.9938 29.506 46.2044 29.4481 45.4335C29.3639 46.3813 29.735 47.3792 29.914 48.3376C30.1561 49.6576 30.0324 51.0859 30.5931 52.3321C30.7036 52.5776 30.8247 53.0079 31.1011 52.8442C31.3064 52.7254 31.5038 52.0311 31.6275 51.8146C32.0088 51.1021 32.4343 50.4144 32.9014 49.7553C33.3489 49.1243 33.9885 48.4564 34.7439 48.5752C35.0018 48.6347 35.2394 48.7615 35.4326 48.9428C35.6258 49.1241 35.7678 49.3534 35.8441 49.6075C35.9316 49.8709 35.9803 50.1457 35.9889 50.4233C36.0314 49.9532 35.985 49.4794 35.852 49.0267Z" fill="black"/>
<path opacity="0.1" d="M47.1412 45.584C47.0533 45.9133 46.8809 46.2137 46.6411 46.4552C45.9804 47.007 44.9381 46.4869 44.1353 46.7931C43.9668 46.8565 43.8142 46.9568 43.6405 47.0044C43.1325 47.139 42.635 46.7958 42.1823 46.5212C41.7296 46.2466 41.1084 46.0434 40.7162 46.3998C40.2056 46.8644 40.5767 47.8571 40.0529 48.3059C39.7186 48.5884 39.1922 48.4934 38.8211 48.7257C38.4499 48.958 38.342 49.4702 38.2473 49.9111C38.1525 50.352 37.9683 50.8563 37.5366 50.9856C37.1049 51.115 36.7048 50.8299 36.2811 50.8457C36.1942 50.8457 36.0916 50.8616 36.0337 50.7955C36.0197 50.7802 36.009 50.7623 36.0021 50.7427C36.0021 50.8879 36.0021 51.0332 35.9889 51.1784C35.983 51.2127 35.9839 51.2479 35.9916 51.2818C35.9992 51.3158 36.0135 51.348 36.0337 51.3764C36.0916 51.4397 36.1942 51.4292 36.2811 51.4265C36.7048 51.4107 37.1286 51.6905 37.5366 51.5665C37.9446 51.4424 38.1525 50.9328 38.2473 50.4919C38.342 50.051 38.4394 49.5468 38.8211 49.3065C39.2027 49.0663 39.7186 49.1692 40.0529 48.8841C40.5793 48.4379 40.2056 47.4426 40.7162 46.9806C41.1084 46.6242 41.7322 46.8275 42.1823 47.102C42.6324 47.3766 43.1325 47.7198 43.6405 47.5825C43.809 47.5219 43.9742 47.4522 44.1353 47.374C44.9381 47.0651 45.9778 47.5878 46.6411 47.0334C46.8814 46.7933 47.0539 46.4936 47.1412 46.1648C47.3224 45.7206 47.4454 45.2547 47.507 44.7787C47.5228 44.6172 47.5228 44.4545 47.507 44.293C47.4339 44.7357 47.3111 45.1688 47.1412 45.584Z" fill="black"/>
</g>
<defs>
<linearGradient id="paint0_linear" x1="163.262" y1="152.241" x2="163.262" y2="65.2369" gradientUnits="userSpaceOnUse">
<stop stop-color="#808080" stop-opacity="0.25"/>
<stop offset="0.54" stop-color="#808080" stop-opacity="0.12"/>
<stop offset="1" stop-color="#808080" stop-opacity="0.1"/>
</linearGradient>
</defs>
</svg>
