<svg xmlns="http://www.w3.org/2000/svg" xmlns:xlink="http://www.w3.org/1999/xlink" viewBox="0 0 1920.38 337.47"><defs><style>.cls-1{fill:#ffe9e9;}.cls-2{fill:#faf3eb;}.cls-3{fill:url(#linear-gradient);}.cls-4{fill:#f9f1e8;}.cls-10,.cls-5{fill:none;}.cls-10,.cls-5,.cls-6,.cls-7{stroke:#000;stroke-miterlimit:10;}.cls-5{stroke-width:1.5px;opacity:0.3;}.cls-6,.cls-7,.cls-8{fill:#fda8b9;}.cls-10,.cls-6{stroke-width:0.5px;}.cls-7{stroke-width:0.05px;}.cls-9{fill:#dbb9b9;}</style><linearGradient id="linear-gradient" x1="-64.28" y1="284.27" x2="1646.7" y2="173.59" gradientUnits="userSpaceOnUse"><stop offset="0.16" stop-color="#ffcece"/><stop offset="0.86" stop-color="#f9f0e7"/></linearGradient></defs><g id="Layer_2" data-name="Layer 2"><g id="WEB3"><g id="Layer_14" data-name="Layer 14"><path class="cls-1" d="M666.12,69.73s261.81-7,331.08-32,179.4-14,210.41,0,187.89-5,236.79-23,279.12-16,335.15,9,121.22,4.56,140.57-.22V212l-1254,8.89Z"/></g><g id="Layer_12" data-name="Layer 12"><path class="cls-2" d="M.12,25.29s391-65.56,579,14.44,353,44,396,30,235-21,331,11,168-12,251-9,318,42.33,363,72.67V336.73H.12Z"/></g><g id="Layer_11" data-name="Layer 11"><path class="cls-3" d="M.12,107.06s195-46.33,444,8.67,853.67,31.17,1054.34-26.91,224.66,31.24,421.66,47.58V336.93H.12Z"/></g><g id="Layer_13" data-name="Layer 13"><path class="cls-4" d="M943.79,336.73c43.11-56.24,112.31-126.59,211.33-149,75.4-17.06,112.23,6,285,51,243.61,63.47,477.88,97.56,480,98H943.79Z"/></g><g id="line"><g id="right"><path class="cls-5" d="M1324.68,336.73S1595.12-1.49,1920.12,118.62"/><path class="cls-5" d="M1375.35,336.73s262.77-267.11,544.77-190.56"/><path class="cls-5" d="M1430.46,336.73s220.66-189.89,489.66-167.44"/></g><g id="middle"><path class="cls-5" d="M942.8,53.45c40.32,23.28,65.32,59.28,91.32,98.28,24,38,39,77,57,117,12,25,25,49,46,68"/><path class="cls-5" d="M981,46.68c34.08,36.05,66.08,74.05,89.08,119,32,61,55,126,107,171"/><path class="cls-5" d="M1010.12,38.73c3.22,3.54,7.94,8.82,13.52,15.34,16.85,19.7,50.71,61.75,101.48,153.66,28.86,52.23,34.07,67.9,58,92a243,243,0,0,0,47.34,37"/><path class="cls-5" d="M1049.12,33.73s76,94,113,171,97.12,123,146.56,132"/></g><g id="left"><path class="cls-5" d="M184.83,5.41c-3.82,37-15.92,73.45-39.68,102.47-22.06,27-54.14,41.67-88.36,45.53a204.64,204.64,0,0,1-56.67-1.9"/><path class="cls-5" d="M218.88,3.07c-2.76,57.66-25.76,116.66-77.76,149.66-43,27-93,30-141,23.67"/><path class="cls-5" d="M250.19,2.52c-1.07,47.21-13.07,94.21-43.07,134.21-22,29-51,47-85,58-40,12-81,13-122,7.44"/><path class="cls-5" d="M279.59.69c3.53,45-7.47,89-28.47,129l-3,3c-50,87-158,103-248,93.44"/></g><circle class="cls-6" cx="1750.12" cy="136.73" r="10"/><circle class="cls-7" cx="1635.62" cy="39.23" r="6.5"/><circle class="cls-8" cx="1171.12" cy="219.73" r="11.5"/><circle class="cls-8" cx="1022.12" cy="92.73" r="6"/><circle class="cls-9" cx="173.62" cy="53.23" r="8.5"/><circle class="cls-10" cx="1470.62" cy="299.23" r="12"/><circle class="cls-10" cx="1502.62" cy="157.23" r="6"/></g></g></g></svg>