<?xml version="1.0" encoding="utf-8"?>
<!-- Generator: Adobe Illustrator 25.2.3, SVG Export Plug-In . SVG Version: 6.00 Build 0)  -->
<svg version="1.1" id="Layer_1" xmlns="http://www.w3.org/2000/svg" xmlns:xlink="http://www.w3.org/1999/xlink" x="0px" y="0px"
	 viewBox="0 0 1920.4 400.8" style="enable-background:new 0 0 1920.4 400.8;" xml:space="preserve">
<style type="text/css">
	.st0{fill:#FFE9E9;}
	.st1{fill:#FAF3EB;}
	.st2{fill:url(#SVGID_1_);}
	.st3{fill:#F9F1E8;}
	.st4{opacity:0.3;fill:none;stroke:#000000;stroke-width:1.5;stroke-miterlimit:10;enable-background:new    ;}
	.st5{fill:#FDA8B9;}
	.st6{fill:#DBB9B9;}
</style>
<g id="Layer_2_1_">
	<g id="WEB3">
		<g id="Layer_14">
			<path class="st0" d="M666.1,133.6C832.8,6.3,935.8,2.2,999,22.1c61.5,19.3,87.3,61.9,191.5,87.7c29.7,7.3,92.7,22.3,171.5,11.7
				c72.7-9.8,136.4-38.3,184.6-59.9c105.6-47.3,104.2-47.8,129.2-47.6c76.3,0.7,111.6,56.7,183.8,43.7c27.3-4.9,48-17.6,60.6-26.9
				v188.5l-1254,8.9C666.1,196.7,666.1,165.1,666.1,133.6z"/>
		</g>
		<g id="Layer_12">
			<path class="st1" d="M0,50.6C74.3,26.7,189.7,0.8,324.5,21.8c77.6,12.1,123.2,33.7,254.6,81.2c177.6,64.3,266.4,96.4,339.4,111.8
				c48.8,10.3,305.7,64.5,575.8-21.1c73.4-23.2,175.9-65.7,311.2-44.4c49.6,7.8,89,21.9,114.6,32.6c0,72.7,0,145.4,0,218.1H0.1
				C0.1,283.6,0,167.1,0,50.6z"/>
		</g>
		<g id="Layer_11">
			
				<linearGradient id="SVGID_1_" gradientUnits="userSpaceOnUse" x1="-64.2802" y1="119.0675" x2="1646.6998" y2="229.7475" gradientTransform="matrix(1 0 0 -1 0 466.6704)">
				<stop  offset="0.16" style="stop-color:#FFCECE"/>
				<stop  offset="0.86" style="stop-color:#F9F0E7"/>
			</linearGradient>
			<path class="st2" d="M0.1,170.4c0,0,195-46.3,444,8.7s853.7,31.2,1054.3-26.9s224.7,31.2,421.7,47.6v200.5H0.1V170.4z"/>
		</g>
		<g id="Layer_13">
			<path class="st3" d="M943.8,400.1c43.1-56.2,112.3-126.6,211.3-149c75.4-17.1,112.2,6,285,51c243.6,63.5,477.9,97.6,480,98H943.8
				z"/>
		</g>
		<g id="line">
			<g id="right">
				<path class="st4" d="M1324.7,400.1c0,0,270.4-338.2,595.4-218.1"/>
				<path class="st4" d="M1375.3,400.1c0,0,262.8-267.1,544.8-190.6"/>
				<path class="st4" d="M1430.5,400.1c0,0,220.7-189.9,489.7-167.4"/>
			</g>
			<g id="middle">
				<path class="st4" d="M913.6,14.6c44.9,33.1,74.4,67.6,92.5,92.2c16.7,22.6,51.6,70.9,70,140.4c9.8,37.3,7.3,51.8,22,80.2
					c18.8,36.5,47.3,59.6,68.4,73.4"/>
				<path class="st4" d="M943.8,13.2c29.4,23.8,62.2,55.6,92.4,97.2c12.3,16.9,34.6,48.1,53.7,93.4c23.2,55.2,16.2,71.2,34.7,107.3
					c13,25.5,37.8,59.1,89.4,89.2"/>
				<path class="st4" d="M974.1,16.1c46.4,33.9,75.7,69.4,93.3,94.3c12.2,17.3,34.3,48.6,50.6,94.5c14.7,41.5,13,61.7,34.7,98
					c5.3,8.9,17.6,28,38.3,48c28.4,27.5,57.7,42.2,76.6,49.9"/>
				<path class="st4" d="M1028.1,34c24.4,19.3,58.5,51.2,85,98.9c30.8,55.4,27.6,89.7,49,135.2c18.3,38.9,56.2,89.7,144.2,132.7"/>
			</g>
			<g id="left">
				<path class="st4" d="M191.7,14.9c1.5,10,13.4,97.1-46.5,156.3c-8.7,8.6-39.3,38-88.4,45.5c-23.8,3.7-43.9,0.9-56.7-1.9"/>
				<path class="st4" d="M220,14.1c15,81.3-16.4,161.2-78.8,202C81,255.3,15.4,243,0.1,239.7"/>
				<path class="st4" d="M249.1,14.6c2.9,14,21.3,111.4-42,185.5c-6.3,7.3-34.8,39.5-85,58c-54.7,20.1-102.6,11.9-122,7.4"/>
				<path class="st4" d="M282.8,16.7c3.1,25,5.1,66.1-8.2,113.7c-2.9,10.4-16.3,56-43.8,90.6c-72,90.4-216.8,75.9-230.6,74.3"/>
			</g>
			<circle class="st5" cx="1750.1" cy="200.1" r="10"/>
			<circle class="st5" cx="1171.1" cy="283.1" r="11.5"/>
			<circle class="st5" cx="1034.1" cy="150.1" r="6"/>
			<circle class="st6" cx="173.6" cy="116.6" r="8.5"/>
			<circle class="st5" cx="1478.8" cy="362.6" r="12"/>
			<circle class="st5" cx="1516.4" cy="235.9" r="6"/>
		</g>
	</g>
</g>
</svg>
