<svg id="BG" xmlns="http://www.w3.org/2000/svg" xmlns:xlink="http://www.w3.org/1999/xlink" viewBox="0 0 1014.02 474.67"><defs><style>.cls-1{fill:#f7ecdf;opacity:0.7;}.cls-2{fill:#ffe9e9;}.cls-3{fill:url(#linear-gradient);}.cls-4{fill:none;stroke:#000;stroke-miterlimit:10;opacity:0.5;}.cls-5{fill:#dbb9b9;}.cls-6{fill:#fda8b9;}</style><linearGradient id="linear-gradient" x1="-152.54" y1="203.65" x2="-67.66" y2="675.4" gradientTransform="translate(352.47 1271.07) rotate(180)" gradientUnits="userSpaceOnUse"><stop offset="0" stop-color="#f8e9dd"/><stop offset="0.05" stop-color="#fae2d9"/><stop offset="0.19" stop-color="#fdd7d3"/><stop offset="0.38" stop-color="#ffd0cf"/><stop offset="0.92" stop-color="#ffcece"/></linearGradient></defs><path class="cls-1" d="M708,996.78a265.37,265.37,0,0,1-33-31c-14.06-15.66-14.81-20.25-33-43a593.94,593.94,0,0,0-40-45c-11.18-11.48-21.17-20.89-29-28a313.76,313.76,0,0,0-130-65,660.35,660.35,0,0,0-166-18c6.39,11.46,12.78,23.79,19,37,8.75,18.57,16,36.35,22,53a375.32,375.32,0,0,0,47,43c49,37.73,98.44,56.34,134,66a278.89,278.89,0,0,0,156,38Z" transform="translate(0.33 -606.78)"/><path class="cls-2" d="M331,870.78c-6.93-13.19-15.85-30.62-25.84-51.39-9.7-20.15-17.21-36.82-22.86-49.37-18.49-41.08-18.35-43.44-24.85-54.41a197.5,197.5,0,0,0-40.75-48.37c-12.86-11.36-46.26-38.1-94.42-48.37-12.77-2.72-31.75-4.49-50.69-5-14.47-.42-26.83.78-45.72-2a198,198,0,0,1-23.86-5c0,1,0,2,0,3C2.76,665.14,46.22,760.89,331,870.78Z" transform="translate(0.33 -606.78)"/><path class="cls-3" d="M1013.68,1079.78q-25.27-11.43-52.7-22a990.77,990.77,0,0,0-263-61,707.23,707.23,0,0,1-93-12,717.9,717.9,0,0,1-195-69,343.19,343.19,0,0,1-83-51c-22.81-19-31.54-31.43-64-66-36.53-38.9-55.63-59.24-83-82-10.24-8.51-55.44-45.47-124-79-21.89-10.7-40.92-18.49-55-23.85L.79,1079.78Z" transform="translate(0.33 -606.78)"/><path class="cls-4" d="M614.5,986.5a455.11,455.11,0,0,0-107-56c-53.86-19.53-72.91-14.62-148-32-96.46-22.32-145.52-33.68-174-75-10.94-15.87-29.47-51.59-18-117" transform="translate(0.33 -606.78)"/><path class="cls-4" d="M28,1081.29A99.62,99.62,0,0,0,23.7,1071,99.63,99.63,0,0,0,14,1055.29a138.62,138.62,0,0,0-13-15.51" transform="translate(0.33 -606.78)"/><path class="cls-4" d="M67,1081.12a212.68,212.68,0,0,0-10.58-22.34c-8.3-15.13-16.23-25-23.71-34.25A311,311,0,0,0,1,990.78" transform="translate(0.33 -606.78)"/><path class="cls-4" d="M112,1080.79a302.43,302.43,0,0,0-17.94-33.63c-14.08-22.78-27.53-37.67-40.22-51.57A498,498,0,0,0,0,944.78" transform="translate(0.33 -606.78)"/><path class="cls-4" d="M156.46,1080.63a390.26,390.26,0,0,0-25-44.35c-19.6-30-38.33-49.67-56-68a678.75,678.75,0,0,0-75-67" transform="translate(0.33 -606.78)"/><path class="cls-4" d="M219,1080.78c-7.8-12.88-17.77-28.56-30-46-18.24-26-33.54-44.62-38-50-15.17-18.28-33-39.72-56-60-19-16.69-49.77-39.88-95-59" transform="translate(0.33 -606.78)"/><circle class="cls-5" cx="42.33" cy="376.22" r="8"/><circle class="cls-5" cx="137.33" cy="428.22" r="12"/><path class="cls-4" d="M557.5,973.5c-17.84-24.44-47.82-57.67-94-77-12.87-5.38-21.61-7.44-97-20-94.79-15.8-111.32-17.61-139-30s-54.18-24.26-72-53c-25.79-41.6-14.83-88.89-11-103" transform="translate(0.33 -606.78)"/><path class="cls-4" d="M508.5,958.5c-12.07-18.63-32.82-45.14-66-66-10.87-6.84-29.37-17-85-31-84.38-21.21-101.7-12.82-157-33-41.29-15.07-68.31-25.38-83-53-12.34-23.21-4.78-63.9-2.72-80.52,1.16-9.36,2.6-17.1,3.72-22.48" transform="translate(0.33 -606.78)"/><circle class="cls-6" cx="108.33" cy="130.22" r="13"/><circle class="cls-6" cx="262.83" cy="266.72" r="5.5"/><ellipse class="cls-6" cx="498.33" cy="306.12" rx="7" ry="6.9"/></svg>