<?xml version="1.0" encoding="utf-8"?>
<!-- Generator: Adobe Illustrator 25.2.3, SVG Export Plug-In . SVG Version: 6.00 Build 0)  -->
<svg version="1.1" id="BG" xmlns="http://www.w3.org/2000/svg" xmlns:xlink="http://www.w3.org/1999/xlink" x="0px" y="0px"
	 viewBox="0 0 1014 474.7" style="enable-background:new 0 0 1014 474.7;" xml:space="preserve">
<style type="text/css">
	.st0{opacity:0.7;fill:#F7ECDF;enable-background:new    ;}
	.st1{fill:#FFE9E9;}
	.st2{fill:url(#SVGID_1_);}
	.st3{opacity:0.5;fill:none;stroke:#141515;stroke-width:0.5;stroke-miterlimit:10;enable-background:new    ;}
	.st4{fill:#DBB9B9;}
	.st5{fill:#FDA8B9;}
</style>
<path class="st0" d="M708.3,390c-11.9-9.4-22.9-19.7-33-31c-14.1-15.7-14.8-20.2-33-43c-12.6-15.7-25.9-30.7-40-45
	c-11.2-11.5-21.2-20.9-29-28c-37.6-31.5-82.2-53.8-130-65c-54.3-13-110.1-19-166-18c6.4,11.5,12.8,23.8,19,37
	c8.8,18.6,16,36.3,22,53c14.4,15.6,30.1,30,47,43c49,37.7,98.4,56.3,134,66c47.2,27.7,101.4,40.9,156,38L708.3,390z"/>
<path class="st1" d="M331.3,264c-6.9-13.2-15.9-30.6-25.8-51.4c-9.7-20.2-17.2-36.8-22.9-49.4c-18.5-41.1-18.4-43.4-24.9-54.4
	c-10.9-18.2-24.7-34.5-40.7-48.4c-12.9-11.4-46.3-38.1-94.4-48.4c-12.8-2.7-31.8-4.5-50.7-5c-14.5-0.4-26.8,0.8-45.7-2
	C18.2,3.9,7.8,2.2,0,0c0,1,0,2,0,3C0.8,58.3,46.6,154.1,331.3,264z"/>
<linearGradient id="SVGID_1_" gradientUnits="userSpaceOnUse" x1="-1055.3236" y1="877.4783" x2="-969.9869" y2="403.1898" gradientTransform="matrix(-1 0 0 1 -551.2 -415.7101)">
	<stop  offset="0" style="stop-color:#F8E9DD"/>
	<stop  offset="5.000000e-02" style="stop-color:#FAE2D9"/>
	<stop  offset="0.19" style="stop-color:#FDD7D3"/>
	<stop  offset="0.38" style="stop-color:#FFD0CF"/>
	<stop  offset="0.92" style="stop-color:#FFCECE"/>
</linearGradient>
<path class="st2" d="M1012.9,474.7c-16.8-7.6-34.4-18.3-52.7-25.4c-84.5-32.2-173-52.8-263-61c-31.2-1.9-62.3-5.9-93-12
	c-68-13.5-133.7-36.7-195-69c-30-13-57.9-30.1-83-51c-22.8-19-31.5-31.4-64-66c-36.5-38.9-55.6-59.2-83-82
	c-10.2-8.5-55.4-45.5-124-79C33.3,18.6,14.1,10.7,0,5.4v469.3H1012.9z"/>
<path class="st3" d="M614.8,379.7c-33-23.3-69-42.2-107-56c-53.9-19.5-72.9-14.6-148-32c-96.5-22.3-145.5-33.7-174-75
	c-10.9-15.9-29.5-51.6-18-117"/>
<path class="st3" d="M28.3,474.5c-1.2-3.5-2.7-6.9-4.3-10.3c-2.7-5.5-6-10.8-9.7-15.7C10.4,443,4.7,437.8,0,433"/>
<path class="st3" d="M67.3,474.3c-3.1-7.6-6.6-15.1-10.6-22.3c-8.3-15.1-16.2-25-23.7-34.2c-9.7-12-21.6-23.1-33-33.6"/>
<path class="st3" d="M112.3,474c-5.3-11.6-11.3-22.8-17.9-33.6c-14.1-22.8-27.5-37.7-40.2-51.6C37.5,370.6,19.2,353.6,0,338"/>
<path class="st3" d="M156.8,473.8c-7.4-15.3-15.7-30.1-25-44.3c-19.6-30-38.3-49.7-56-68c-23.3-24.2-49.2-46.6-75.8-67"/>
<path class="st3" d="M219.3,474c-7.8-12.9-17.8-28.6-30-46c-18.2-26-33.5-44.6-38-50c-15.2-18.3-33-39.7-56-60
	c-19-16.7-50.1-39.9-95.3-59"/>
<circle class="st4" cx="42.3" cy="376.2" r="8"/>
<circle class="st4" cx="137.3" cy="428.2" r="12"/>
<path class="st3" d="M557.8,366.7c-17.8-24.4-47.8-57.7-94-77c-12.9-5.4-21.6-7.4-97-20c-94.8-15.8-111.3-17.6-139-30
	s-54.2-24.3-72-53c-25.8-41.6-14.8-88.9-11-103"/>
<path class="st3" d="M508.8,351.7c-12.1-18.6-32.8-45.1-66-66c-10.9-6.8-29.4-17-85-31c-84.4-21.2-101.7-12.8-157-33
	c-41.3-15.1-68.3-25.4-83-53c-12.3-23.2-4.8-63.9-2.7-80.5c1.2-9.4,2.6-17.1,3.7-22.5"/>
<circle class="st5" cx="108.3" cy="130.2" r="13"/>
<circle class="st5" cx="262.8" cy="266.7" r="5.5"/>
<ellipse class="st5" cx="498.3" cy="306.1" rx="7" ry="6.9"/>
</svg>
