<svg xmlns="http://www.w3.org/2000/svg" xmlns:xlink="http://www.w3.org/1999/xlink" viewBox="0 0 1014.06 475.07"><defs><style>.cls-1,.cls-7{fill:#f7ecdf;}.cls-1{opacity:0.7;}.cls-2{fill:#ffe9e9;}.cls-3{fill:url(#linear-gradient);}.cls-4,.cls-5{fill:none;stroke:#000;stroke-miterlimit:10;}.cls-4{opacity:0.5;}.cls-5{opacity:0.49;}.cls-6{fill:#dbb9b9;}.cls-8{fill:#fda8b9;}</style><linearGradient id="linear-gradient" x1="1414.97" y1="12.37" x2="1499.85" y2="484.11" gradientUnits="userSpaceOnUse"><stop offset="0" stop-color="#f8e9dd"/><stop offset="0.05" stop-color="#fae2d9"/><stop offset="0.19" stop-color="#fdd7d3"/><stop offset="0.38" stop-color="#ffd0cf"/><stop offset="0.92" stop-color="#ffcece"/></linearGradient></defs><g id="BG"><path class="cls-1" d="M1213,85a265.37,265.37,0,0,1,33,31c14.06,15.66,14.81,20.26,33,43a593.94,593.94,0,0,0,40,45c11.18,11.49,21.17,20.89,29,28a313.65,313.65,0,0,0,57,38,313.77,313.77,0,0,0,73,27,659.93,659.93,0,0,0,80,14,659.54,659.54,0,0,0,86,4c-6.38-11.46-12.78-23.79-19-37-8.75-18.57-16-36.35-22-53a375.32,375.32,0,0,0-47-43c-49-37.73-98.44-56.34-134-66a278.89,278.89,0,0,0-156-38Z" transform="translate(-906.3 0.07)"/><path class="cls-2" d="M1590,211c6.93,13.19,15.85,30.63,25.84,51.39,9.7,20.16,17.21,36.82,22.86,49.37,18.49,41.08,18.35,43.44,24.85,54.42a197.82,197.82,0,0,0,40.75,48.36c12.86,11.36,46.26,38.1,94.42,48.37,12.77,2.72,31.75,4.49,50.69,5,14.47.41,26.84-.79,45.73,2a198.22,198.22,0,0,1,23.85,5c0-1,0-2,0-3C1918.22,416.64,1874.76,320.89,1590,211Z" transform="translate(-906.3 0.07)"/><path class="cls-3" d="M906.3,0Q931.58,11.43,959,22a990.77,990.77,0,0,0,263,61,710.62,710.62,0,0,1,93,12,717.78,717.78,0,0,1,195,69,343,343,0,0,1,83,51c22.81,19,31.55,31.44,64,66,36.53,38.9,55.63,59.24,83,82,10.24,8.51,55.44,45.47,124,79,21.89,10.71,40.92,18.5,55,23.85L1919.19,0Z" transform="translate(-906.3 0.07)"/></g><g id="VECTORS"><path class="cls-4" d="M1460,141a128.78,128.78,0,0,0,15.88,28,119.7,119.7,0,0,0,26.9,27.25c8.94,6.5,16.5,10.13,25.06,14.24,11.55,5.55,24.8,11.9,43.47,15.5a150.88,150.88,0,0,0,36.71,2.44" transform="translate(-906.3 0.07)"/><path class="cls-4" d="M1431,129a180.15,180.15,0,0,0,21.1,38.87c6.6,9.25,17,23.59,35.79,37.82,11.9,9,22,14,33.36,19.74,15.37,7.68,33,16.48,57.88,21.45a192.42,192.42,0,0,0,48.89,3.33" transform="translate(-906.3 0.07)"/><path class="cls-4" d="M1403.33,119.6a228.85,228.85,0,0,0,26.3,49.22c8.22,11.71,21.19,29.87,44.62,47.87,14.84,11.41,27.39,17.78,41.6,25,19.17,9.73,41.17,20.87,72.2,27.15a236.63,236.63,0,0,0,61,4.18" transform="translate(-906.3 0.07)"/><path class="cls-4" d="M949.5.5A58.54,58.54,0,0,0,924,8" transform="translate(-906.3 0.07)"/><path class="cls-4" d="M985,31a153.09,153.09,0,0,1,35-10.36c21.78-3.69,32.47-.55,79.76,2.9,28.38,2.06,42.88,3.07,58.36,1.93,19.22-1.42,33.72-4.62,52.22-8.7C1225.84,13.35,1245.5,8.36,1268,1" transform="translate(-906.3 0.07)"/><path class="cls-4" d="M951,18A171.66,171.66,0,0,1,980.37,7.87c24-5.91,43.21-5.1,69.2-3.81,25.23,1.25,36.71,3.83,69,4.78,5.47.16,12.61.3,21.79-.17a268.62,268.62,0,0,0,39-5.06c5.73-1.17,10.48-2.32,13.89-3.19" transform="translate(-906.3 0.07)"/><path class="cls-5" d="M1893,.49a103.3,103.3,0,0,0,4.33,10.27A99.63,99.63,0,0,0,1907,26.49,137.72,137.72,0,0,0,1920,42" transform="translate(-906.3 0.07)"/><path class="cls-4" d="M1853,.66A209.36,209.36,0,0,0,1863.54,23c8.3,15.13,16.23,25,23.71,34.25A312,312,0,0,0,1919,91" transform="translate(-906.3 0.07)"/><path class="cls-4" d="M1808,1a299.54,299.54,0,0,0,17.93,33.63c14.08,22.78,27.53,37.67,40.22,51.57A498,498,0,0,0,1920,137" transform="translate(-906.3 0.07)"/><path class="cls-4" d="M1763.52,1.15a389.4,389.4,0,0,0,25,44.35c19.6,30,38.33,49.67,56,68a678.75,678.75,0,0,0,75,67" transform="translate(-906.3 0.07)"/><path class="cls-4" d="M1701,1c7.8,12.89,17.78,28.56,30,46,18.24,26,33.54,44.62,38,50,15.17,18.28,33,39.72,56,60,19,16.69,49.78,39.88,95,59" transform="translate(-906.3 0.07)"/><circle class="cls-6" cx="655.7" cy="262.07" r="7"/><circle class="cls-7" cx="829.7" cy="56.07" r="8"/><circle class="cls-7" cx="972.7" cy="101.07" r="15"/><circle class="cls-8" cx="151.2" cy="23.57" r="11.5"/></g></svg>