<?xml version="1.0" encoding="utf-8"?>
<!-- Generator: Adobe Illustrator 25.2.3, SVG Export Plug-In . SVG Version: 6.00 Build 0)  -->
<svg version="1.1" id="Layer_1" xmlns="http://www.w3.org/2000/svg" xmlns:xlink="http://www.w3.org/1999/xlink" x="0px" y="0px"
	 viewBox="0 0 1014.1 475.1" style="enable-background:new 0 0 1014.1 475.1;" xml:space="preserve">
<style type="text/css">
	.st0{opacity:0.7;fill:#F7ECDF;enable-background:new    ;}
	.st1{fill:#FFE9E9;}
	.st2{fill:url(#SVGID_1_);}
	.st3{opacity:0.5;fill:none;stroke:#141515;stroke-width:0.5;stroke-miterlimit:10;enable-background:new    ;}
	
		.st4{opacity:0.49;fill:none;stroke:#141515;stroke-width:0.5;stroke-linecap:square;stroke-miterlimit:10;enable-background:new    ;}
	
		.st5{opacity:0.5;fill:none;stroke:#141515;stroke-width:0.5;stroke-linecap:square;stroke-miterlimit:10;enable-background:new    ;}
	.st6{fill:#DBB9B9;}
	.st7{fill:#F7ECDF;}
	.st8{fill:#FDA8B9;}
</style>
<g id="BG">
	<path class="st0" d="M306.7,77.7c11.9,9.4,22.9,27.1,33,38.4c14.1,15.7,14.8,20.3,33,43c12.6,15.7,25.9,30.7,40,45
		c11.2,11.5,21.2,20.9,29,28c17.6,14.7,36.7,27.5,57,38c23.1,12,47.6,21.1,73,27c26.4,6.3,53.1,11,80,14c28.5,3.2,57.3,4.5,86,4
		c-6.4-11.5-12.8-23.8-19-37c-8.8-18.6-16-36.4-22-53c-14.4-15.6-30.1-30-47-43c-49-37.7-98.4-56.3-134-66
		c-47.2-27.7-101.4-40.9-156-38L306.7,77.7z"/>
	<path class="st1" d="M685.1,211.2c6.9,13.2,15.8,30.6,25.8,51.4c9.7,20.2,17.2,36.8,22.9,49.4c18.5,41.1,18.3,43.4,24.8,54.4
		c10.9,18.2,24.7,34.5,40.8,48.4c12.9,11.4,46.3,38.1,94.4,48.4c12.8,2.7,31.8,4.5,50.7,5c14.5,0.4,26.8-0.8,45.7,2
		c8,1.2,16,2.8,23.8,5c0-1,0-8.1,0-9.1C1013.3,410.7,969.8,321.1,685.1,211.2z"/>
	
		<linearGradient id="SVGID_1_" gradientUnits="userSpaceOnUse" x1="1415.5503" y1="465.6952" x2="1500.4623" y2="-6.2229" gradientTransform="matrix(1 0 0 -1 -906.3 478.07)">
		<stop  offset="0" style="stop-color:#F8E9DD"/>
		<stop  offset="5.000000e-02" style="stop-color:#FAE2D9"/>
		<stop  offset="0.19" style="stop-color:#FDD7D3"/>
		<stop  offset="0.38" style="stop-color:#FFD0CF"/>
		<stop  offset="0.92" style="stop-color:#FFCECE"/>
	</linearGradient>
	<path class="st2" d="M0,0.1c16.9,7.6,34.4,15,52.7,22c84.5,32.2,173,52.8,263,61c31.2,1.9,62.3,6,93,12c68,13.5,133.7,36.7,195,69
		c30,13,57.9,30.1,83,51c22.8,19,31.6,31.4,64,66c36.5,38.9,55.6,59.2,83,82c10.2,8.5,55.4,45.5,124,79
		c21.9,10.7,42.3,18.5,56.4,23.9V0L0,0.1z"/>
</g>
<g id="VECTORS">
	<path class="st3" d="M553.7,141.1c4.1,10,9.4,19.4,15.9,28c7.4,10.5,16.5,19.7,26.9,27.2c8.9,6.5,16.5,10.1,25.1,14.2
		c11.6,5.6,24.8,11.9,43.5,15.5c12.1,2.3,24.4,3.1,36.7,2.4"/>
	<path class="st3" d="M524.7,129.1c5.4,13.8,12.5,26.8,21.1,38.9c6.6,9.2,17,23.6,35.8,37.8c11.9,9,22,14,33.4,19.7
		c15.4,7.7,33,16.5,57.9,21.4c16.1,3.2,32.5,4.3,48.9,3.3"/>
	<path class="st3" d="M497,119.7c6.7,17.4,15.6,33.9,26.3,49.2c8.2,11.7,21.2,29.9,44.6,47.9c14.8,11.4,27.4,17.8,41.6,25
		c19.2,9.7,41.2,20.9,72.2,27.1c20.1,4,40.6,5.4,61,4.2"/>
	<path class="st3" d="M43.2,0.6c-9,0.5-17.7,3.1-25.5,7.5"/>
	<path class="st3" d="M78.7,31.1c11.2-4.8,23-8.3,35-10.4c21.8-3.7,32.5-0.5,79.8,2.9c28.4,2.1,42.9,3.1,58.4,1.9
		c19.2-1.4,33.7-4.6,52.2-8.7c15.5-3.4,35.2-8.4,57.7-15.8"/>
	<path class="st3" d="M44.7,18.1c9.5-4.3,19.3-7.6,29.4-10.1c24-5.9,43.2-5.1,69.2-3.8c25.2,1.2,36.7,3.8,69,4.8
		c5.5,0.2,12.6,0.3,21.8-0.2c13.1-0.7,26.1-2.4,39-5.1c5.7-1.2,10.5-2.3,13.9-3.2"/>
	<path class="st4" d="M986.7,0.6c1.3,3.5,2.7,6.9,4.3,10.3c2.7,5.5,6,10.8,9.7,15.7c3.9,5.5,8.7,10.8,13.4,15.6"/>
	<path class="st5" d="M946.7,0.7c3.1,7.6,6.6,15.1,10.5,22.3c8.3,15.1,16.2,25,23.7,34.2c9.7,12,21.7,23.3,33.1,33.7"/>
	<path class="st5" d="M901.7,1.1c5.3,11.6,11.2,22.8,17.9,33.6c14.1,22.8,27.5,37.7,40.2,51.6c16.7,18.2,35,35.3,54.2,50.9"/>
	<path class="st3" d="M857.2,1.2c7.4,15.3,15.7,30.1,25,44.3c19.6,30,38.3,49.7,56,68c23.3,24.2,49.2,46.7,75.8,67.2"/>
	<path class="st5" d="M794.7,1.1c7.8,12.9,17.8,28.6,30,46c18.2,26,33.5,44.6,38,50c15.2,18.3,33,39.7,56,60
		c19,16.7,50.1,40,95.4,59.1"/>
	<circle class="st6" cx="655.7" cy="262.1" r="7"/>
	<circle class="st7" cx="829.7" cy="56.1" r="8"/>
	<circle class="st7" cx="972.7" cy="101.1" r="15"/>
	<circle class="st8" cx="151.2" cy="23.6" r="11.5"/>
</g>
</svg>
