<svg xmlns="http://www.w3.org/2000/svg" xmlns:xlink="http://www.w3.org/1999/xlink" viewBox="0 0 1920 328.24"><defs><style>.cls-1{fill:#faf3eb;}.cls-2{fill:#ffe9e9;}.cls-3{fill:url(#linear-gradient);}.cls-4{fill:none;stroke:#000;stroke-miterlimit:10;stroke-width:1.5px;opacity:0.3;}.cls-5{fill:#fae1d9;}.cls-6{fill:#fcc3ca;}</style><linearGradient id="linear-gradient" x1="77.71" y1="169.08" x2="1789.68" y2="89.88" gradientUnits="userSpaceOnUse"><stop offset="0" stop-color="#f9f1e7"/><stop offset="0.8" stop-color="#ffcece"/></linearGradient></defs><g id="Layer_2" data-name="Layer 2"><g id="Layer_3" data-name="Layer 3"><path class="cls-1" d="M591,225.67s546,252,815-34l-35-102-710-9Z"/></g><g id="Layer_4" data-name="Layer 4"><path class="cls-2" d="M1246,112.67c40.35,36.16,285.65,249.64,555,181a446.87,446.87,0,0,0,119-49.77L1505,88.67Z"/></g><g id="Layer_2-2" data-name="Layer 2"><path class="cls-3" d="M0,168.93s259.5,159.24,600.5,54.24,512-90,512-90,179-9,346,76,430,47.23,461.5,35.62V.67H0Z"/></g><g id="line"><g id="right"><path class="cls-4" d="M1793.89,1.17S1562,150.67,1710,305.67"/><path class="cls-4" d="M1758.33,305.67s-170.89-134,88.89-304.5"/><path class="cls-4" d="M1901.44.67s-291.44,142-101.44,296"/><circle class="cls-5" cx="1705" cy="218.67" r="9"/><circle class="cls-5" cx="1785.5" cy="84.17" r="6.5"/></g><g id="center"><path class="cls-4" d="M683,256.67s63-32,118-117S910.33.67,910.33.67"/><path class="cls-4" d="M699.14,265.54s69.8-33.11,130.73-121S951,.67,951,.67"/><path class="cls-4" d="M712.88,266c51-26.15,84.1-55.4,104.62-76.81,39.92-41.64,49.48-71.5,95-120A498.53,498.53,0,0,1,992,.67"/><path class="cls-4" d="M729.26,270.21c49-24.4,82-51.21,102.24-70,65.63-60.94,77.14-111.64,145-159a305.7,305.7,0,0,1,81-40"/></g><g id="left"><path class="cls-4" d="M8,94.67s131,31,174,12,85.44-91,89.22-105.5"/><path class="cls-4" d="M8,112.84S115.11,134,132.56,133.33,239.22,148.67,296.11,1.67"/><path class="cls-4" d="M4,133.56s74,5.11,118,16.11,144.37,12,200.19-148"/><path class="cls-4" d="M4,153.88s16.48-5.79,43.26,0,107.93,20.79,155.85,15.79,111.08-69,144-168"/><circle class="cls-6" cx="265.5" cy="14.17" r="12.5"/><circle class="cls-6" cx="65.5" cy="157.17" r="12.5"/><circle class="cls-6" cx="192" cy="123.67" r="7"/></g></g></g></svg>