<svg xmlns="http://www.w3.org/2000/svg" xmlns:xlink="http://www.w3.org/1999/xlink" viewBox="0 0 1127.83 911.12"><defs><style>.cls-1{fill:#ffe9e9;}.cls-2{fill:#faf3eb;}.cls-3{fill:url(#linear-gradient);}.cls-4{fill:url(#linear-gradient-2);}.cls-5{fill:none;stroke:#000;stroke-miterlimit:10;opacity:0.3;}.cls-6{fill:#dbb9b9;}.cls-7{fill:#fda8b9;}.cls-8{fill:#f7ecdf;}</style><linearGradient id="linear-gradient" x1="134.29" y1="2271.56" x2="963.89" y2="1856.76" gradientUnits="userSpaceOnUse"><stop offset="0.07" stop-color="#ffcece"/><stop offset="1" stop-color="#f7ecdf"/></linearGradient><linearGradient id="linear-gradient-2" x1="-94" y1="1685" x2="-94" y2="1685" xlink:href="#linear-gradient"/></defs><g id="bg_small_piece_2" data-name="bg small piece 2"><path class="cls-1" d="M363,1650c.25-.77,1.4-1.07,29.37-2.7,12-.69,28.16-2.1,49.63-5.3a556.64,556.64,0,0,0,56-11c19.79-5,38.31-9.78,61-20,18.39-8.29,19.2-11.17,45-23,28.9-13.26,38.41-14.55,43-15,5-.49,24.2-2.76,42,5a226.16,226.16,0,0,0,24.26,9.76c3.23,1.07,6.62,2.26,10.74,3.24a133.81,133.81,0,0,0,36,3c7.65-.37,17.74-.93,30-5,8.19-2.71,13.13-5.59,21.58-10.21,0,0,17.68-9.64,38.42-19.79,11.56-5.65,32.26-15.59,60-20a174.4,174.4,0,0,1,49-1,166.92,166.92,0,0,1,48,14c15.11,7,35.65,19.38,40,22,10.33,6.22,15.61,9.85,25,12,4.31,1,16,3.38,29-1,15.3-5.18,17.85-10.21,24-10,0,0,0,234,0,234C1004.69,1959.32,357.37,1667.67,363,1650Z" transform="translate(0 -1525.69)"/></g><g id="bg_small_piece_1" data-name="bg small piece 1"><path class="cls-2" d="M0,1575c25.61-22.2,54.41-29.61,90-39a300.6,300.6,0,0,1,65-10c18.32-.64,50.48-1.49,88,11,44.56,14.84,76.29,41.7,92,55,3.24,2.74,14.4,12.35,31,26,12.16,10,20.16,16.58,26,21,4.88,3.69,9,6.7,10.47,7.75,11,7.85,34.63,21.61,56.53,26.25,20.66,4.38,39.77-1.44,78-13,28.77-8.7,33.36-14,63-21,18.93-4.51,33.11-7.77,52-7,16.91.69,29.94,4.8,56,13,35,11,39.83,16.48,65,21,11.38,2,22.78,4,38,3,12.66-.85,24.28-3.91,47-10,25.09-6.73,24.81-8,34-9,18.15-1.94,32.43,1.69,45,5,19.44,5.12,32.74,12.21,49,21,27.27,14.75,40.9,22.12,46,30,23,35.6-42.88,116.57-48.72,123.66l-.28.34c-76.33,92.28-799.18,264.6-983,13Z" transform="translate(0 -1525.69)"/><path class="cls-2" d="M453,1641" transform="translate(0 -1525.69)"/><path class="cls-2" d="M1214,1644" transform="translate(0 -1525.69)"/></g><g id="bg_main" data-name="bg main"><path class="cls-3" d="M0,1679c8.61-2,21.06-5,29.46-6.87.6-.14,1.62-.38,3-.68,9.42-2,16-3,16-3a288.14,288.14,0,0,1,61-2c6.33.44,26.47,2,59,10,29.94,7.32,54.66,16.17,79,26,80.13,32.36,80.84,44.93,131,59,36.32,10.18,66.08,12,83,13a425.94,425.94,0,0,0,105-7c40.09-7.8,76-21,95-28,8.23-3,14-5.34,27.73-10.23C722,1717.56,747,1710,755.5,1707.5c14.72-4.38,37.54-11.12,68-18a439.59,439.59,0,0,1,81.91-11c28.33-1.09,71.55-2.37,122.59,14.49a296,296,0,0,1,61.5,28.49l0,0h0c18.77,11.84,32.93,21.57,34.75,22.83l0,0,.16.11c.28.24.62,682.77.5,691.42-.9.18-308.51.07-601.8-.16-266.74-.22-521.63-.53-523.2-.83Z" transform="translate(0 -1525.69)"/><path class="cls-4" d="M-94,1685" transform="translate(0 -1525.69)"/></g><g id="top_left" data-name="top left"><path id="Vector4" class="cls-5" d="M.5,1736.5c11.13,2.37,99.36,19.8,157-35,29.73-28.27,40.9-65.86,46-83a227.84,227.84,0,0,0,8-89" transform="translate(0 -1525.69)"/><path id="Vector3" class="cls-5" d="M.5,1768.5c13.91,2.39,118.57,18.74,186-48,32.86-32.52,47.18-75.19,52-90a253.75,253.75,0,0,0,12-91" transform="translate(0 -1525.69)"/><path id="Vector2" class="cls-5" d="M.5,1795.5c12.07,2.22,148.16,25.29,222-55,30.1-32.73,46.6-79.1,49-86a274.14,274.14,0,0,0,15-97" transform="translate(0 -1525.69)"/><path id="Vector1" class="cls-5" d="M.5,1822.5a329.06,329.06,0,0,0,106,3c34.85-4.71,80.86-10.78,124-45,40.75-32.33,57.35-72.6,67-96a280.22,280.22,0,0,0,21-107" transform="translate(0 -1525.69)"/><circle id="Ellipse" class="cls-6" cx="197.5" cy="104.81" r="9.5"/></g><g id="right_bottom" data-name="right bottom"><g id="_1" data-name="1"><path id="Vector3-2" data-name="Vector3" class="cls-5" d="M95.5,2435.5a588.58,588.58,0,0,1,110-142c103-97.29,214.08-130.44,286-151,130.17-37.21,234.83-31.66,294-28,64.7,4,117,7.71,180,35,79.66,34.53,131.09,87.22,159,121" transform="translate(0 -1525.69)"/><path id="Vector2-2" data-name="Vector2" class="cls-5" d="M143.5,2435.5c20.43-33.87,56.21-83.37,115-126,29.94-21.71,55.76-34.33,82-47,29.75-14.37,89-40.68,175-61a1006.93,1006.93,0,0,1,290-25c89.9,5.4,153,9.92,223,50a370.92,370.92,0,0,1,96.27,79.76" transform="translate(0 -1525.69)"/><path id="Vector1-2" data-name="Vector1" class="cls-5" d="M189.5,2436.5a414.73,414.73,0,0,1,77-76c46.5-35.16,89-51.65,132-68,55.79-21.2,99.75-30.81,134-38,115.5-24.26,209.81-25.53,263-24a894.52,894.52,0,0,1,99,8c41.57,5.78,75.77,10.54,115,25,29,10.68,72.26,30.92,118,71" transform="translate(0 -1525.69)"/><circle id="Ellipse_P" data-name="Ellipse P" class="cls-7" cx="861.5" cy="649.81" r="11"/><circle id="Ellipse_W1" data-name="Ellipse W1" class="cls-8" cx="443.5" cy="750.81" r="17.5"/><circle id="Ellipse_W2" data-name="Ellipse W2" class="cls-8" cx="230" cy="807.31" r="15"/></g><g id="_2" data-name="2"><path id="Vector4-2" data-name="Vector4" class="cls-5" d="M574.5,2124.5a209.68,209.68,0,0,1,35-62c7.86-9.57,35.91-41.92,125-78,52.07-21.09,95.91-31.67,131-40,69.33-16.46,86.8-13.91,130-33,25.79-11.4,54.9-24.62,82-54,31.21-33.85,43.1-71.08,48-92" transform="translate(0 -1525.69)"/><path id="Vector3-3" data-name="Vector3" class="cls-5" d="M529.5,2131.5c10.76-28.48,32-72.9,74-113,43.42-41.45,88.94-59.09,130-75,31.24-12.11,33.07-9.54,149-41,85-23.07,95.23-27.48,106-33,23.36-12,72.94-38.15,107-95a232.92,232.92,0,0,0,29-77" transform="translate(0 -1525.69)"/><path id="Vector1-3" data-name="Vector1" class="cls-5" d="M615.5,2120.5a217,217,0,0,1,36-51c5.76-6.06,29.35-31.08,85-56,15.62-7,49.51-21.22,104-34,69.61-16.32,78-8,132-24,39.84-11.78,70.67-21.26,100-48,31.8-29,45.71-63.56,52-84" transform="translate(0 -1525.69)"/><path id="Vector2-3" data-name="Vector2" class="cls-5" d="M662.5,2114.5a127.78,127.78,0,0,1,29-42c3.77-3.59,14.81-13.65,45-28,19.38-9.21,41.73-17.84,72-26,11.38-3.07,25.56-6.52,80-16,69.15-12,63.22-9.43,83-14,45.68-10.55,74.41-17.19,102-39,13.09-10.35,36-32,51.43-72.75" transform="translate(0 -1525.69)"/><circle id="Ellipse3" class="cls-8" cx="539.75" cy="581.06" r="6.25"/><circle id="Ellipse2" class="cls-7" cx="927.5" cy="363.81" r="13"/><circle id="Ellipse1" class="cls-7" cx="750" cy="483.31" r="10"/><circle id="Ellipse4" class="cls-7" cx="1090.5" cy="407.81" r="5"/></g></g></svg>