<svg xmlns="http://www.w3.org/2000/svg" xmlns:xlink="http://www.w3.org/1999/xlink" viewBox="0 0 843.89 850.78"><defs><style>.cls-1{fill:#faf3eb;}.cls-2{fill:#ffe9e9;}.cls-3{fill:url(#linear-gradient);}.cls-4{fill:none;stroke:#000;stroke-miterlimit:10;opacity:0.3;}.cls-5{fill:#dbb9b9;}.cls-6{fill:#fda8b9;}</style><linearGradient id="linear-gradient" x1="741.78" y1="824.43" x2="-267.67" y2="281.4" gradientUnits="userSpaceOnUse"><stop offset="0" stop-color="#f7ecdf" stop-opacity="0.72"/><stop offset="0.02" stop-color="#f7ebde" stop-opacity="0.73"/><stop offset="0.54" stop-color="#fdd6d3" stop-opacity="0.92"/><stop offset="0.8" stop-color="#ffcece"/></linearGradient></defs><g id="Layer_2" data-name="Layer 2"><g id="Bottom"><g id="Layer_11" data-name="Layer 11"><path class="cls-1" d="M191,282.78s480,118,504,429L191,533.33Z"/></g><g id="Layer_12" data-name="Layer 12"><path class="cls-2" d="M0,2.67C3.53,3.9,8.66,5.75,14.76,8.16,31.59,14.78,84.47,36,127,73.78c60.18,53.42,80.66,123,88,148,9.09,30.91,6.69,39.39,22,99,9.59,37.32,19.17,67.62,26,88l-190-254Z"/></g><g id="Layer_10" data-name="Layer 10"><path class="cls-3" d="M0,0S154,164.78,197,293.78s206,272,329,319,290.78,181,317.89,238H0Z"/></g><g id="bottom-left"><line class="cls-4" x1="12" y1="833.78" x2="20" y2="843.78"/><path class="cls-4" d="M5.5,785.28s44.56,51,47.28,58.5"/><path class="cls-4" d="M7.5,748.28s71.22,81,78.61,95.5"/><path class="cls-4" d="M9.5,712.28s93.89,103,109.94,131.5"/><path class="cls-4" d="M12,677.33a1002.1,1002.1,0,0,1,72.5,77.95,1004.37,1004.37,0,0,1,66.06,88.5"/><path class="cls-4" d="M37.5,666.28a945.47,945.47,0,0,1,76,82,946.7,946.7,0,0,1,69.06,95.5"/><circle class="cls-5" cx="34" cy="774.78" r="7"/><circle class="cls-5" cx="134.5" cy="818.28" r="11.5"/></g><g id="top-left"><path class="cls-4" d="M101.5,119.28s-73,222,27,291,284,39,378,194"/><path class="cls-4" d="M131.5,166.28s-59,180-3,244,86,60,145,75,222,28,292,145"/><path class="cls-4" d="M153.5,206.28s-48,138-25,204,49,82,158,115,228,10,347,146"/><circle class="cls-6" cx="205.5" cy="496.28" r="7.5"/><circle class="cls-6" cx="80.5" cy="221.28" r="15.5"/><circle class="cls-6" cx="497.5" cy="557.28" r="9.5"/></g></g></g></svg>