<svg xmlns="http://www.w3.org/2000/svg" xmlns:xlink="http://www.w3.org/1999/xlink" viewBox="0 0 1126.84 962.7"><defs><style>.cls-1,.cls-6{fill:#f7ecdf;}.cls-1{opacity:0.62;}.cls-2{fill:#ffe9e9;}.cls-3{fill:url(#linear-gradient);}.cls-4{fill:none;stroke:#000;stroke-miterlimit:10;opacity:0.3;}.cls-5{fill:#fda8b9;}.cls-7{font-size:46px;fill:#fdf0f0;font-family:Poppins-SemiBold, Poppins;font-weight:600;letter-spacing:0.18em;}</style><linearGradient id="linear-gradient" x1="990.23" y1="449.57" x2="210.9" y2="449.57" gradientUnits="userSpaceOnUse"><stop offset="0.22" stop-color="#ffcece"/><stop offset="1" stop-color="#f7ecdf"/></linearGradient></defs><g id="bg_small_piece_1" data-name="bg small piece 1"><path class="cls-1" d="M330,843c22.67,19.37,55.38,47,105,72,27.19,13.72,66.8,33.71,123,42,36.11,5.33,87.34,12.88,145-11,48.91-20.26,77.69-52.88,89-66,26.31-30.52,46-53.82,42-72-18.42-83.29-537.64-62.58-544-5C289.41,808.32,302.94,819.88,330,843Z" transform="translate(0.98 0.21)"/></g><g id="bg_small_piece_2" data-name="bg small piece 2"><path class="cls-2" d="M1125,879.31A184.29,184.29,0,0,1,1085,916c-7,4.76-21.84,14.72-42,21-32.86,10.23-60.79,5.78-77,3-53.72-9.2-90-36.6-121-60-30.37-23-49.79-44.83-64-61-20.29-23.09-30.43-34.64-29-39,14.53-44.23,361.77,61.38,373.07,77.17,0,3.26-.06,6.53-.07,9.83Q1125,873.21,1125,879.31Z" transform="translate(0.98 0.21)"/><polyline class="cls-2" points="1125.98 857.3 1125.98 879.59 1125.98 857.3"/></g><g id="bg_main" data-name="bg main"><path class="cls-3" d="M0,812c22.91,24.69,54,41,54,41h0c42.18,23.56,81.3,28.66,109,32a355.55,355.55,0,0,0,101-2c32.09-5.49,47.57-14.08,107-37,112.61-43.43,115.77-47.84,151-57,34.79-9,78.82-20.35,137-17,22.42,1.29,61.89,3.9,107,23,22.59,9.57,20.49,12.22,62,34,24.47,12.84,57,29.77,100,45,31.85,11.28,56,19.84,90,23,39.31,3.66,60.65,3.54,80-4a133.2,133.2,0,0,0,27-15V0C1124.88-.12.31-.41,0,0Z" transform="translate(0.98 0.21)"/></g><g id="bottom"><path class="cls-4" d="M-.24,637.55a270.52,270.52,0,0,1,67-22,273.94,273.94,0,0,1,102.5.5c12.85,2.52,73.12,15.28,127.24,61.45,17.7,15.1,33.72,32.9,59,61,3.63,4,18.21,20.3,37,43,21.72,26.24,27.31,34.82,42,53,21,26,40.91,50.64,67,73,18,15.42,46.2,36,87,53" transform="translate(0.98 0.21)"/><path class="cls-4" d="M.06,606.66a290.28,290.28,0,0,1,67-22c53.28-10.55,95.38-3.27,106.44-1.16,60.75,11.59,101.23,42,122,58,27.46,21.13,51.64,50.42,100,109,14.93,18.09,13.2,16.74,45,56,41.17,50.82,62,76.48,75,89,19.39,18.7,50.56,44.1,98,66" transform="translate(0.98 0.21)"/><path class="cls-4" d="M0,667a270.52,270.52,0,0,1,67-22,267.51,267.51,0,0,1,102.5.5c10.26,2.12,62.73,13.63,113,54,23.42,18.81,42.33,40.65,71.13,73.91,4.65,5.36,16.38,18.82,35.79,41.44,6.23,7.25,13.8,16,23.58,27.15,28,31.9,42,47.81,51,56,17.83,16.25,46.69,40.67,98.5,59.5" transform="translate(0.98 0.21)"/><path class="cls-4" d="M-.74,579.92A270.36,270.36,0,0,1,63.5,554.5a277.59,277.59,0,0,1,120-3c57.08,11.11,95.22,37.18,115,51,32.4,22.64,54.26,46.77,67,61,13.67,15.26,26.11,31.84,51,65,14.76,19.67,14.51,19.94,36,49,24.93,33.71,37.39,50.57,53,70,24.83,30.91,37.24,46.37,51,59,17.42,16,45.76,37.52,89,54" transform="translate(0.98 0.21)"/></g><g id="top_left" data-name="top left"><path class="cls-4" d="M.5,294.5a969.08,969.08,0,0,0,110-1c57.73-3.79,87.17-6,115-20,49.88-25.13,74.65-68.92,86-89,18.82-33.27,25.43-63.21,34-102a575,575,0,0,0,12-82" transform="translate(0.98 0.21)"/><path class="cls-4" d="M.5,320.5a884.51,884.51,0,0,0,157-5c72.84-8.91,95.59-21.14,104-26,48.29-27.93,71.37-71.92,84-96,18.86-36,25.45-67.57,34.55-111.22a687.85,687.85,0,0,0,12-82" transform="translate(0.98 0.21)"/><path class="cls-4" d="M.5,348.5c54.85-2.19,98.92-3.35,129-4,34.7-.75,44.07-.67,61-3,28.13-3.87,71.39-9.81,110-36,40.24-27.29,57.3-64.26,79.28-111.91,20.32-44.07,28.5-82.67,34.55-111.22a653.24,653.24,0,0,0,12-82" transform="translate(0.98 0.21)"/><path class="cls-4" d="M.5,372.5c64.64-2.51,109.45-3.65,143-4a594,594,0,0,0,67-4c15.21-1.79,32.27-3.8,49-8,12-3,56.42-15.32,95-51,31.93-29.53,44.37-60.74,62-105C433,159,439.61,124.34,447.46,83c6.32-33.28,9.89-61.5,12-82" transform="translate(0.98 0.21)"/><circle class="cls-5" cx="339.98" cy="103.21" r="22"/><ellipse class="cls-5" cx="261.88" cy="291.35" rx="7.11" ry="7.14"/><circle class="cls-5" cx="87.48" cy="366.71" r="16.5"/></g><g id="top_right" data-name="top right"><path class="cls-4" d="M1125,848a727.83,727.83,0,0,1-147-52c-44.38-21.34-79-38.39-113-75-31.88-34.29-46.21-67.38-49-74-4.67-11.07-22.65-56-17-128,1.27-16.19,6.94-74.6,58-176,65.63-130.34,148.49-217,197-267,29-29.92,54.24-53.09,71-68" transform="translate(0.98 0.21)"/><path class="cls-4" d="M1124.79,786.77a575.65,575.65,0,0,1-90.29-32.27c-52.93-24-88.53-40.22-118-77-35.61-44.44-41.77-93.36-45-119-7-55.38,4.85-97.92,16-138,14.65-52.71,34.64-89.76,49-116,27-49.35,53.14-82,92-130,23.06-28.5,55.4-66.4,97-109" transform="translate(0.98 0.21)"/><path class="cls-4" d="M1125.06,726.12a291.25,291.25,0,0,1-90.29-32.27c-24.91-13.91-63.71-35.59-90.27-80.35-33.08-55.74-26.9-113.12-24-140,4.77-44.29,19.6-75.85,38-115,18.62-39.63,37.23-66.7,56-94a919.31,919.31,0,0,1,82-102c11.67-12.62,21.76-22.84,29-30" transform="translate(0.98 0.21)"/><ellipse class="cls-6" cx="1023.62" cy="172.31" rx="16.63" ry="16.49" transform="translate(211.12 817.29) rotate(-47.96)"/><ellipse class="cls-6" cx="899.61" cy="654.46" rx="13.07" ry="12.96" transform="translate(-71.95 114.5) rotate(-6.99)"/><ellipse class="cls-6" cx="946.46" cy="390.66" rx="9.45" ry="9.56" transform="translate(-39.51 118.24) rotate(-6.99)"/><text class="cls-7" transform="translate(1087.75 590.25) rotate(-90)">Welcome</text></g></svg>