<svg xmlns="http://www.w3.org/2000/svg" xmlns:xlink="http://www.w3.org/1999/xlink" viewBox="0 0 1125.5 937.39"><defs><style>.cls-1{fill:#faf3eb;}.cls-2{fill:#ffe9e9;}.cls-3{fill:url(#linear-gradient);}.cls-4{fill:none;stroke:#000;stroke-miterlimit:10;opacity:0.3;}.cls-5{fill:#fda7b9;}.cls-6{fill:#f7ecdf;}.cls-7{fill:#dbb9b9;}</style><linearGradient id="linear-gradient" x1="197.07" y1="30.41" x2="1054.87" y2="435.57" gradientUnits="userSpaceOnUse"><stop offset="0" stop-color="#f7ecdf" stop-opacity="0.72"/><stop offset="0.03" stop-color="#f8eade" stop-opacity="0.74"/><stop offset="0.22" stop-color="#fbded7" stop-opacity="0.85"/><stop offset="0.4" stop-color="#fdd5d2" stop-opacity="0.93"/><stop offset="0.57" stop-color="#ffd0cf" stop-opacity="0.98"/><stop offset="0.73" stop-color="#ffcece"/></linearGradient></defs><g id="Layer_2" data-name="Layer 2"><g id="Top"><g id="Layer_6" data-name="Layer 6"><path class="cls-1" d="M355.5,414.29s72,92.18,87,129.18c0,0,102.3,194.21,373.65,184.11L775.52,603.25S679.5,424.12,355.5,414.29Z"/></g><g id="Layer_5" data-name="Layer 5"><path class="cls-2" d="M775.52,603.25s64,356.71,344,331"/></g><g id="Layer_1-2" data-name="Layer 1"><path class="cls-3" d="M.5,287.91a766.69,766.69,0,0,0,71.75,42.28c118.19,61.27,232.82,81.64,320.25,87.28,83,11.31,235,45.51,363,166a590.44,590.44,0,0,1,73,83,784.39,784.39,0,0,0,95.25,120.18A790.33,790.33,0,0,0,1125.5,937.39V.47H.5Z"/></g><g id="top-left_line_" data-name="top-left(line)"><path class="cls-4" d="M.5,296.8s5-48.33,227-37.33c0,0,192.33,14,218.66-259"/><path class="cls-4" d="M549,4.47c-3,31-26.92,250.21-148,296.5-25.51,9.75-104.08,30.46-171,25a408,408,0,0,0-87,1,399.17,399.17,0,0,0-49,9"/><path class="cls-4" d="M510.49,4.33c-28.42,315.2-236,299-236,299S88.07,299,64.53,319.47"/><path class="cls-4" d="M481.36,4.31C454.13,294.65,255.24,279.76,255.24,279.76S58.25,274.11,29.13,306"/><circle class="cls-5" cx="430" cy="78.97" r="19.5"/><circle class="cls-5" cx="233.5" cy="326.47" r="16"/><circle class="cls-5" cx="355.5" cy="252.47" r="10"/></g><g id="top-right_line_" data-name="top-right(line)"><path class="cls-4" d="M923.66,5.7s46.08,220.93,195.84,411.77"/><path class="cls-4" d="M881.27.11s56.06,260.42,238.23,485.36"/><path class="cls-4" d="M840.83.47S905,289.19,1113.5,538.58"/><path class="cls-4" d="M787.5.47s88,442,326,585"/><path class="cls-4" d="M965.06.55S1001.4,188.3,1119.5,350.47"/><path class="cls-4" d="M1006.58.81s26.58,150.05,112.92,279.66"/><path class="cls-4" d="M1048.23,1.21S1065,107.58,1119.5,199.47"/><path class="cls-4" d="M1090,.77s7,53.49,29.53,99.7"/><circle class="cls-6" cx="848.5" cy="203.47" r="14.5"/><circle class="cls-6" cx="1067.5" cy="262.47" r="16"/><circle class="cls-6" cx="1025.5" cy="75.47" r="9"/></g><g id="bottom-middle_line_" data-name="bottom-middle(line)"><path class="cls-4" d="M620,486S708.51,622,784.26,608.5"/><path class="cls-4" d="M588.39,469S685,660,805,638"/><path class="cls-4" d="M559.08,460.29S669,706,818,656"/><circle class="cls-7" cx="649.5" cy="557.47" r="9"/></g></g></g></svg>